<?xml version="1.0" standalone="no"?>
<!DOCTYPE svg PUBLIC "-//W3C//DTD SVG 1.1//EN" "http://www.w3.org/Graphics/SVG/1.1/DTD/svg11.dtd" >
<svg xmlns="http://www.w3.org/2000/svg" xmlns:xlink="http://www.w3.org/1999/xlink" version="1.1">
<metadata>
Created by FontForge 20160407 at Fri Jul 29 16:50:00 2016
 By Jimmy Wärting
Copyright (c) 2013 by Roman Ershov, Jovanny Lemonad. All rights reserved.
</metadata>
<defs>
<font id="Supermolot" horiz-adv-x="595" >
  <font-face 
    font-family="Supermolot"
    font-weight="400"
    font-stretch="normal"
    units-per-em="1000"
    panose-1="2 0 5 3 5 0 0 2 0 4"
    ascent="807"
    descent="-193"
    x-height="530"
    cap-height="700"
    bbox="-75 -274 1300 940"
    underline-thickness="50"
    underline-position="-100"
    unicode-range="U+0020-2122"
  />
<missing-glyph horiz-adv-x="740" 
d="M100 605h540v-510h-540v510zM580 545h-420v-390h420v390zM370 390l115 105l40 -40l-115 -105l115 -105l-40 -40l-115 105l-115 -105l-40 40l115 105l-115 105l40 40z" />
    <glyph glyph-name=".notdef" horiz-adv-x="740" 
d="M100 605h540v-510h-540v510zM580 545h-420v-390h420v390zM370 390l115 105l40 -40l-115 -105l115 -105l-40 -40l-115 105l-115 -105l-40 40l115 105l-115 105l40 40z" />
    <glyph glyph-name="D" unicode="D" horiz-adv-x="680" 
d="M600 550v-400c0 -91 -59 -150 -170 -150h-340v700h340c111 0 170 -59 170 -150zM420 620h-220v-540h220c40 0 70 30 70 70v400c0 40 -30 70 -70 70z" />
    <glyph glyph-name="E" unicode="E" horiz-adv-x="590" 
d="M555 700v-45l-30 -35h-325v-230h265v-80h-265v-230h355v-80h-465v700h465z" />
    <glyph glyph-name="F" unicode="F" horiz-adv-x="570" 
d="M555 700v-45l-30 -35h-325v-240h265v-80h-265v-300h-110v700h465z" />
    <glyph glyph-name="G" unicode="G" horiz-adv-x="675" 
d="M480 310h-150v80h260v-390h-340c-111 0 -170 59 -170 150v400c0 91 59 150 170 150h305v-45l-30 -35h-265c-40 0 -70 -30 -70 -70v-400c0 -40 30 -70 70 -70h220v230z" />
    <glyph glyph-name="H" unicode="H" horiz-adv-x="690" 
d="M200 0h-110v700h110v-310h290v310h110v-700h-110v310h-290v-310z" />
    <glyph glyph-name="I" unicode="I" horiz-adv-x="290" 
d="M200 0h-110v700h110v-700z" />
    <glyph glyph-name="J" unicode="J" horiz-adv-x="525" 
d="M10 70h245c40 0 70 30 70 70v560h110v-560c0 -91 -59 -150 -170 -150h-255v80z" />
    <glyph glyph-name="K" unicode="K" horiz-adv-x="655" 
d="M200 0h-110v700h110v-305h135l155 305h105v-50l-170 -295l190 -305v-50h-105l-175 315h-135v-315z" />
    <glyph glyph-name="L" unicode="L" horiz-adv-x="555" 
d="M200 80h345v-80h-455v700h110v-620z" />
    <glyph glyph-name="M" unicode="M" horiz-adv-x="975" 
d="M560 85h-145l-175 505h-5l-65 -590h-105v50l90 650h150l180 -515h5l180 515h150l90 -650v-50h-105l-65 590h-5z" />
    <glyph glyph-name="N" unicode="N" horiz-adv-x="690" 
d="M90 700h120l290 -540h5l-15 170v370h110v-700h-120l-290 540h-5l15 -170v-370h-110v700z" />
    <glyph glyph-name="O" unicode="O" horiz-adv-x="680" 
d="M190 560v-420c0 -40 30 -70 70 -70h160c40 0 70 30 70 70v420c0 40 -30 70 -70 70h-160c-40 0 -70 -30 -70 -70zM80 140v420c0 91 59 150 170 150h180c111 0 170 -59 170 -150v-420c0 -91 -59 -150 -170 -150h-180c-111 0 -170 59 -170 150z" />
    <glyph glyph-name="P" unicode="P" horiz-adv-x="650" 
d="M200 0h-110v700h330c111 0 170 -59 170 -150v-170c0 -91 -59 -150 -170 -150h-220v-230zM200 620v-310h210c40 0 70 30 70 70v170c0 40 -30 70 -70 70h-210z" />
    <glyph glyph-name="R" unicode="R" horiz-adv-x="665" 
d="M200 0h-110v700h330c111 0 170 -59 170 -150v-130c0 -60 -35 -95 -70 -115c-21 -12 -44 -20 -70 -25l165 -230v-50h-105l-170 270h-140v-270zM200 620v-270h210c40 0 70 30 70 70v130c0 40 -30 70 -70 70h-210z" />
    <glyph glyph-name="Q" unicode="Q" horiz-adv-x="680" 
d="M80 140v420c0 91 59 150 170 150h180c111 0 170 -59 170 -150v-420c0 -91 -59 -150 -170 -150h-35l70 -80v-45h-105l-65 125h-45c-111 0 -170 59 -170 150zM190 560v-420c0 -40 30 -70 70 -70h160c40 0 70 30 70 70v420c0 40 -30 70 -70 70h-160c-40 0 -70 -30 -70 -70z
" />
    <glyph glyph-name="S" unicode="S" horiz-adv-x="590" 
d="M370 290l-190 45c-80 19 -130 70 -130 155v60c0 91 59 150 170 150h290v-45l-30 -35h-250c-40 0 -70 -30 -70 -70v-60c0 -35 25 -62 60 -70l190 -45c80 -19 130 -70 130 -155v-70c0 -91 -59 -150 -170 -150h-320v80h310c40 0 70 30 70 70v70c0 35 -25 62 -60 70z" />
    <glyph glyph-name="T" unicode="T" horiz-adv-x="560" 
d="M15 620v80h530v-45l-30 -35h-180v-620h-110v620h-210z" />
    <glyph glyph-name="U" unicode="U" horiz-adv-x="710" 
d="M510 140v560h110v-560c0 -91 -59 -150 -170 -150h-190c-111 0 -170 59 -170 150v560h110v-560c0 -40 30 -70 70 -70h170c40 0 70 30 70 70z" />
    <glyph glyph-name="V" unicode="V" horiz-adv-x="635" 
d="M320 100l180 600h105v-50l-215 -650h-145l-215 650v50h105l180 -600h5z" />
    <glyph glyph-name="W" unicode="W" horiz-adv-x="955" 
d="M480 485h-5l-145 -485h-150l-140 650v50h105l115 -590h5l140 480h145l140 -480h5l115 590h105v-50l-140 -650h-150z" />
    <glyph glyph-name="X" unicode="X" horiz-adv-x="605" 
d="M305 280h-5l-165 -280h-105v50l205 305l-190 295v50h105l150 -280h5l150 280h105v-50l-190 -295l205 -305v-50h-105z" />
    <glyph glyph-name="Y" unicode="Y" horiz-adv-x="600" 
d="M20 700h105l170 -375h10l170 375h105v-50l-225 -435v-215h-110v215l-225 435v50z" />
    <glyph glyph-name="Z" unicode="Z" horiz-adv-x="585" 
d="M175 80h370v-80h-505v75l360 540v5h-330l-30 35v45h495v-75l-360 -540v-5z" />
    <glyph glyph-name="afii10018" unicode="&#x411;" horiz-adv-x="650" 
d="M555 700v-45l-30 -35h-325v-195h225c111 0 170 -59 170 -150v-125c0 -91 -59 -150 -170 -150h-335v700h465zM200 345v-265h215c40 0 70 30 70 70v125c0 40 -30 70 -70 70h-215z" />
    <glyph glyph-name="afii10017" unicode="&#x410;" horiz-adv-x="655" 
d="M520 0l-55 170h-275l-55 -170h-105v50l225 650h145l225 -650v-50h-105zM325 600l-110 -350h225l-110 350h-5z" />
    <glyph glyph-name="afii10019" unicode="&#x412;" horiz-adv-x="660" 
d="M460 470v80c0 40 -30 70 -70 70h-190v-220h190c40 0 70 30 70 70zM490 365v-5c20 -3 38 -10 55 -19c27 -16 55 -44 55 -91v-100c0 -91 -59 -150 -170 -150h-340v700h310c111 0 170 -59 170 -150v-80c0 -45 -20 -71 -40 -86c-12 -9 -25 -15 -40 -19zM420 320h-220v-240
h220c40 0 70 30 70 70v100c0 40 -30 70 -70 70z" />
    <glyph glyph-name="afii10020" unicode="&#x413;" horiz-adv-x="545" 
d="M535 700v-45l-30 -35h-305v-620h-110v700h445z" />
    <glyph glyph-name="afii10021" unicode="&#x414;" horiz-adv-x="720" 
d="M580 0h-470l-25 -140h-85v220h55c11 7 22 15 31 24c16 15 31 36 34 61l50 535h425v-620h95v-220h-85zM270 620l-40 -455c-3 -25 -20 -44 -37 -59c-10 -8 -21 -15 -33 -21v-5h325v540h-215z" />
    <glyph glyph-name="afii10022" unicode="&#x415;" horiz-adv-x="590" 
d="M555 700v-45l-30 -35h-325v-230h265v-80h-265v-230h355v-80h-465v700h465z" />
    <glyph glyph-name="afii10024" unicode="&#x416;" horiz-adv-x="980" 
d="M435 395v305h110v-305h125l145 305h105v-50l-160 -295l180 -305v-50h-105l-165 315h-125v-315h-110v315h-125l-165 -315h-105v50l180 305l-160 295v50h105l145 -305h125z" />
    <glyph glyph-name="afii10025" unicode="&#x417;" horiz-adv-x="585" 
d="M345 315h-185v80h175c40 0 70 30 70 70v85c0 40 -30 70 -70 70h-265l-30 35v45h305c111 0 170 -59 170 -150v-85c0 -45 -25 -71 -50 -86c-15 -9 -31 -15 -50 -19v-5c20 -3 38 -10 55 -19c27 -16 55 -44 55 -91v-95c0 -91 -59 -150 -170 -150h-325v80h315
c40 0 70 30 70 70v95c0 40 -30 70 -70 70z" />
    <glyph glyph-name="afii10026" unicode="&#x418;" horiz-adv-x="690" 
d="M480 700h120v-700h-110v370l15 170h-5l-290 -540h-120v700h110v-370l-15 -170h5z" />
    <glyph glyph-name="afii10027" unicode="&#x419;" horiz-adv-x="690" 
d="M400 765h-110c-67 0 -100 33 -100 100v50h90v-50c0 -20 10 -30 30 -30h70c20 0 30 10 30 30v50h90v-50c0 -67 -33 -100 -100 -100zM480 700h120v-700h-110v370l15 170h-5l-290 -540h-120v700h110v-370l-15 -170h5z" />
    <glyph glyph-name="afii10028" unicode="&#x41a;" horiz-adv-x="655" 
d="M200 0h-110v700h110v-305h135l155 305h105v-50l-170 -295l190 -305v-50h-105l-175 315h-135v-315z" />
    <glyph glyph-name="afii10029" unicode="&#x41b;" horiz-adv-x="690" 
d="M40 -10h-30v80h30c35 0 65 29 70 80l50 550h440v-700h-110v620h-230l-40 -470c-9 -105 -64 -160 -180 -160z" />
    <glyph glyph-name="afii10030" unicode="&#x41c;" horiz-adv-x="975" 
d="M560 85h-145l-175 505h-5l-65 -590h-105v50l90 650h150l180 -515h5l180 515h150l90 -650v-50h-105l-65 590h-5z" />
    <glyph glyph-name="afii10031" unicode="&#x41d;" horiz-adv-x="690" 
d="M200 0h-110v700h110v-310h290v310h110v-700h-110v310h-290v-310z" />
    <glyph glyph-name="afii10032" unicode="&#x41e;" horiz-adv-x="680" 
d="M190 560v-420c0 -40 30 -70 70 -70h160c40 0 70 30 70 70v420c0 40 -30 70 -70 70h-160c-40 0 -70 -30 -70 -70zM80 140v420c0 91 59 150 170 150h180c111 0 170 -59 170 -150v-420c0 -91 -59 -150 -170 -150h-180c-111 0 -170 59 -170 150z" />
    <glyph glyph-name="afii10033" unicode="&#x41f;" horiz-adv-x="690" 
d="M200 0h-110v700h510v-700h-110v620h-290v-620z" />
    <glyph glyph-name="afii10034" unicode="&#x420;" horiz-adv-x="650" 
d="M200 0h-110v700h330c111 0 170 -59 170 -150v-170c0 -91 -59 -150 -170 -150h-220v-230zM200 620v-310h210c40 0 70 30 70 70v170c0 40 -30 70 -70 70h-210z" />
    <glyph glyph-name="afii10035" unicode="&#x421;" 
d="M80 150v400c0 91 59 150 170 150h305v-45l-30 -35h-265c-40 0 -70 -30 -70 -70v-400c0 -40 30 -70 70 -70h295v-80h-305c-111 0 -170 59 -170 150z" />
    <glyph glyph-name="afii10036" unicode="&#x422;" horiz-adv-x="560" 
d="M15 620v80h530v-45l-30 -35h-180v-620h-110v620h-210z" />
    <glyph glyph-name="afii10037" unicode="&#x423;" horiz-adv-x="625" 
d="M25 700h105l200 -435h5l160 435h105v-50l-215 -510c-39 -91 -100 -150 -200 -150h-65v80h65c35 0 65 30 85 70l10 20l-255 490v50z" />
    <glyph glyph-name="afii10038" unicode="&#x424;" horiz-adv-x="920" 
d="M515 -40h-110v80h-170c-111 0 -170 59 -170 150v330c0 91 59 150 170 150h170v80h110v-80h170c111 0 170 -59 170 -150v-330c0 -91 -59 -150 -170 -150h-170v-80zM745 190v330c0 40 -30 70 -70 70h-160v-470h160c40 0 70 30 70 70zM175 520v-330c0 -40 30 -70 70 -70h160
v470h-160c-40 0 -70 -30 -70 -70z" />
    <glyph glyph-name="afii10040" unicode="&#x426;" horiz-adv-x="715" 
d="M575 0h-485v700h110v-620h280v620h110v-620h95v-220h-85z" />
    <glyph glyph-name="afii10041" unicode="&#x427;" horiz-adv-x="650" 
d="M170 700v-290c0 -40 30 -70 70 -70h210v360h110v-700h-110v260h-220c-111 0 -170 59 -170 150v290h110z" />
    <glyph glyph-name="afii10042" unicode="&#x428;" horiz-adv-x="1020" 
d="M455 700h110v-620h255v620h110v-700h-840v700h110v-620h255v620z" />
    <glyph glyph-name="afii10043" unicode="&#x429;" horiz-adv-x="1055" 
d="M455 700h110v-620h255v620h110v-620h95v-220h-85l-25 140h-825v700h110v-620h255v620z" />
    <glyph glyph-name="afii10044" unicode="&#x42a;" horiz-adv-x="700" 
d="M0 620v80h260v-255h215c111 0 170 -59 170 -150v-145c0 -91 -59 -150 -170 -150h-325v620h-150zM260 365v-285h205c40 0 70 30 70 70v145c0 40 -30 70 -70 70h-205z" />
    <glyph glyph-name="afii10045" unicode="&#x42b;" horiz-adv-x="930" 
d="M200 700v-255h215c111 0 170 -59 170 -150v-145c0 -91 -59 -150 -170 -150h-325v700h110zM200 365v-285h205c40 0 70 30 70 70v145c0 40 -30 70 -70 70h-205zM840 0h-110v700h110v-700z" />
    <glyph glyph-name="afii10046" unicode="&#x42c;" horiz-adv-x="650" 
d="M200 700v-255h225c111 0 170 -59 170 -150v-145c0 -91 -59 -150 -170 -150h-335v700h110zM200 365v-285h215c40 0 70 30 70 70v145c0 40 -30 70 -70 70h-215z" />
    <glyph glyph-name="afii10047" unicode="&#x42d;" 
d="M515 550v-400c0 -91 -59 -150 -170 -150h-305v80h295c40 0 70 30 70 70v160h-245v80h245v160c0 40 -30 70 -70 70h-265l-30 35v45h305c111 0 170 -59 170 -150z" />
    <glyph glyph-name="afii10048" unicode="&#x42e;" horiz-adv-x="940" 
d="M860 560v-420c0 -91 -59 -150 -170 -150h-170c-111 0 -170 59 -170 150v170h-150v-310h-110v700h110v-310h150v170c0 91 59 150 170 150h170c111 0 170 -59 170 -150zM750 140v420c0 40 -30 70 -70 70h-150c-40 0 -70 -30 -70 -70v-420c0 -40 30 -70 70 -70h150
c40 0 70 30 70 70z" />
    <glyph glyph-name="afii10049" unicode="&#x42f;" horiz-adv-x="660" 
d="M460 0v265h-150l-155 -265h-105v50l155 225c-26 5 -49 13 -70 25c-35 20 -70 55 -70 115v135c0 91 59 150 170 150h335v-700h-110zM460 345v275h-215c-40 0 -70 -30 -70 -70v-135c0 -40 30 -70 70 -70h215z" />
    <glyph glyph-name="afii10066" unicode="&#x431;" horiz-adv-x="600" 
d="M180 515v-40h200c95 0 155 -61 155 -130v-225c0 -69 -60 -130 -155 -130h-150c-95 0 -155 61 -155 130v395c0 109 70 177 165 190l265 35l15 -80l-265 -35c-35 -5 -75 -45 -75 -110zM180 405v-285c0 -35 25 -60 60 -60h130c35 0 60 25 60 60v225c0 35 -25 60 -60 60h-190
z" />
    <glyph glyph-name="afii10067" unicode="&#x432;" horiz-adv-x="580" 
d="M365 235h-185v-165h185c35 0 60 25 60 60v45c0 35 -25 60 -60 60zM400 365v35c0 35 -25 60 -60 60h-160v-155h160c35 0 60 25 60 60zM505 400v-34c0 -41 -22 -63 -43 -76c-12 -7 -26 -12 -42 -15v-5c20 -3 38 -9 55 -16c27 -13 55 -36 55 -79v-45
c0 -69 -60 -130 -155 -130h-300v530h275c95 0 155 -61 155 -130z" />
    <glyph glyph-name="afii10068" unicode="&#x433;" horiz-adv-x="475" 
d="M75 0v530h390v-35l-30 -35h-255v-460h-105z" />
    <glyph glyph-name="afii10069" unicode="&#x434;" horiz-adv-x="635" 
d="M0 70h45c11 7 22 14 31 22c16 15 31 35 34 63l35 375h375v-460h85v-200h-80l-25 130h-395l-25 -130h-80v200zM240 460l-25 -305c-3 -28 -18 -48 -34 -61c-9 -7 -20 -14 -31 -19v-5h265v390h-175z" />
    <glyph glyph-name="afii10071" unicode="&#x451;" horiz-adv-x="570" 
d="M230 725v-105h-105v105h105zM440 725v-105h-105v105h105zM505 410v-185h-335v-95c0 -35 25 -60 60 -60h255v-70h-265c-95 0 -155 61 -155 130v280c0 69 60 130 155 130h130c95 0 155 -61 155 -130zM170 410v-115h230v115c0 35 -25 60 -60 60h-110c-35 0 -60 -25 -60 -60z
" />
    <glyph glyph-name="afii10072" unicode="&#x436;" horiz-adv-x="845" 
d="M370 300v230h105v-230h110l105 230h100v-45l-120 -220l135 -220v-45h-100l-120 230h-110v-230h-105v230h-110l-120 -230h-100v45l135 220l-120 220v45h100l105 -230h110z" />
    <glyph glyph-name="afii10073" unicode="&#x437;" horiz-adv-x="520" 
d="M40 495v35h265c95 0 155 -61 155 -130v-34c0 -41 -25 -63 -50 -76c-15 -7 -31 -12 -50 -15v-5c20 -3 38 -9 55 -16c27 -13 55 -36 55 -79v-45c0 -69 -60 -130 -155 -130h-285v70h275c35 0 60 25 60 60v45c0 35 -25 60 -60 60h-155v70h145c35 0 60 25 60 60v35
c0 35 -25 60 -60 60h-225z" />
    <glyph glyph-name="afii10074" unicode="&#x438;" horiz-adv-x="610" 
d="M430 265l10 140h-5l-240 -405h-120v530h105v-265l-10 -140h5l240 405h120v-530h-105v265z" />
    <glyph glyph-name="afii10075" unicode="&#x439;" horiz-adv-x="610" 
d="M430 265l10 140h-5l-240 -405h-120v530h105v-265l-10 -140h5l240 405h120v-530h-105v265zM355 600h-100c-65 0 -100 35 -100 95v45h85v-45c0 -20 10 -30 30 -30h70c20 0 30 10 30 30v45h85v-45c0 -60 -35 -95 -100 -95z" />
    <glyph glyph-name="afii10077" unicode="&#x43b;" horiz-adv-x="600" 
d="M135 530h390v-530h-105v460h-190l-25 -330c-7 -80 -65 -140 -165 -140h-30v70h30c31 0 56 25 60 70z" />
    <glyph glyph-name="afii10078" unicode="&#x43c;" horiz-adv-x="815" 
d="M475 60h-135l-135 370h-5l-45 -430h-100v45l65 485h140l145 -380h5l145 380h140l65 -485v-45h-100l-45 430h-5z" />
    <glyph glyph-name="afii10079" unicode="&#x43d;" horiz-adv-x="610" 
d="M180 530v-225h250v225h105v-530h-105v235h-250v-235h-105v530h105z" />
    <glyph glyph-name="afii10080" unicode="&#x43e;" 
d="M530 410v-290c0 -69 -60 -130 -155 -130h-155c-95 0 -155 61 -155 130v290c0 69 60 130 155 130h155c95 0 155 -61 155 -130zM170 410v-290c0 -35 25 -60 60 -60h135c35 0 60 25 60 60v290c0 35 -25 60 -60 60h-135c-35 0 -60 -25 -60 -60z" />
    <glyph glyph-name="afii10081" unicode="&#x43f;" horiz-adv-x="610" 
d="M75 530h460v-530h-105v460h-250v-460h-105v530z" />
    <glyph glyph-name="afii10082" unicode="&#x440;" 
d="M285 540h90c95 0 155 -61 155 -130v-280c0 -69 -60 -130 -155 -130h-195v-170h-105v700h65l20 -65h5c6 13 15 26 26 37c19 19 49 38 94 38zM365 470h-80c-40 0 -67 -22 -83 -43c-9 -12 -17 -26 -22 -42v-315h185c35 0 60 25 60 60v280c0 35 -25 60 -60 60z" />
    <glyph glyph-name="afii10083" unicode="&#x441;" horiz-adv-x="520" 
d="M65 130v270c0 69 60 130 155 130h260v-35l-30 -35h-220c-35 0 -60 -25 -60 -60v-270c0 -35 25 -60 60 -60h250v-70h-260c-95 0 -155 61 -155 130z" />
    <glyph glyph-name="afii10084" unicode="&#x442;" horiz-adv-x="495" 
d="M15 460v70h465v-35l-30 -35h-150v-460h-105v460h-180z" />
    <glyph glyph-name="afii10085" unicode="&#x443;" horiz-adv-x="540" 
d="M515 485l-190 -525c-24 -69 -85 -130 -180 -130h-50v70h50c40 0 63 25 75 60l10 30v10l-205 485v45h100l155 -435h5l130 435h100v-45z" />
    <glyph glyph-name="afii10086" unicode="&#x444;" horiz-adv-x="795" 
d="M345 530v180h105v-180h125c95 0 155 -61 155 -130v-270c0 -69 -60 -130 -155 -130h-125v-170h-105v170h-125c-95 0 -155 61 -155 130v270c0 69 60 130 155 130h125zM345 460h-115c-35 0 -60 -25 -60 -60v-270c0 -35 25 -60 60 -60h115v390zM450 70h115c35 0 60 25 60 60
v270c0 35 -25 60 -60 60h-115v-390z" />
    <glyph glyph-name="afii10087" unicode="&#x445;" horiz-adv-x="535" 
d="M270 200h-5l-135 -200h-100v45l175 220l-165 220v45h100l125 -200h5l125 200h100v-45l-165 -220l175 -220v-45h-100z" />
    <glyph glyph-name="afii10088" unicode="&#x446;" horiz-adv-x="640" 
d="M505 0h-430v530h105v-460h240v460h105v-460h85v-200h-80z" />
    <glyph glyph-name="afii10089" unicode="&#x447;" horiz-adv-x="580" 
d="M160 530v-220c0 -35 25 -60 60 -60h180v280h105v-530h-105v180h-190c-95 0 -155 61 -155 130v220h105z" />
    <glyph glyph-name="afii10090" unicode="&#x448;" horiz-adv-x="885" 
d="M810 0h-735v530h105v-460h210v460h105v-460h210v460h105v-530z" />
    <glyph glyph-name="afii10091" unicode="&#x449;" horiz-adv-x="925" 
d="M790 0h-715v530h105v-460h210v460h105v-460h210v460h105v-460h85v-200h-80z" />
    <glyph glyph-name="afii10092" unicode="&#x44a;" horiz-adv-x="610" 
d="M0 460v70h235v-180h175c95 0 155 -61 155 -130v-90c0 -69 -60 -130 -155 -130h-280v460h-130zM235 70h165c35 0 60 25 60 60v90c0 35 -25 60 -60 60h-165v-210z" />
    <glyph glyph-name="afii10093" unicode="&#x44b;" horiz-adv-x="795" 
d="M510 220v-90c0 -69 -60 -130 -155 -130h-280v530h105v-180h175c95 0 155 -61 155 -130zM720 530v-530h-105v530h105zM180 70h165c35 0 60 25 60 60v90c0 35 -25 60 -60 60h-165v-210z" />
    <glyph glyph-name="afii10094" unicode="&#x44c;" horiz-adv-x="565" 
d="M520 220v-90c0 -69 -60 -130 -155 -130h-290v530h105v-180h185c95 0 155 -61 155 -130zM180 70h175c35 0 60 25 60 60v90c0 35 -25 60 -60 60h-175v-210z" />
    <glyph glyph-name="afii10095" unicode="&#x44d;" horiz-adv-x="520" 
d="M455 400v-270c0 -69 -60 -130 -155 -130h-260v70h250c35 0 60 25 60 60v105h-200v70h200v95c0 35 -25 60 -60 60h-220l-30 30v40h260c95 0 155 -61 155 -130z" />
    <glyph glyph-name="afii10096" unicode="&#x44e;" horiz-adv-x="820" 
d="M180 530v-225h130v105c0 69 60 130 155 130h135c95 0 155 -61 155 -130v-290c0 -69 -60 -130 -155 -130h-135c-95 0 -155 61 -155 130v115h-130v-235h-105v530h105zM415 410v-290c0 -35 25 -60 60 -60h115c35 0 60 25 60 60v290c0 35 -25 60 -60 60h-115
c-35 0 -60 -25 -60 -60z" />
    <glyph glyph-name="afii10097" unicode="&#x44f;" horiz-adv-x="575" 
d="M60 320v80c0 69 60 130 155 130h285v-530h-105v190h-120l-130 -190h-100v45l130 155c-21 4 -41 11 -58 22c-29 17 -57 47 -57 98zM395 460h-170c-35 0 -60 -25 -60 -60v-80c0 -35 25 -60 60 -60h170v200z" />
    <glyph glyph-name="a" unicode="a" horiz-adv-x="575" 
d="M290 -10h-90c-95 0 -155 61 -155 130v55c0 69 60 130 155 130h195v95c0 35 -25 60 -60 60h-240v70h250c95 0 155 -61 155 -130v-400h-65l-20 65h-5c-6 -14 -15 -27 -26 -38c-19 -19 -49 -37 -94 -37zM210 60h80c40 0 66 21 82 42c9 12 17 26 23 43v90h-185
c-35 0 -60 -25 -60 -60v-55c0 -35 25 -60 60 -60z" />
    <glyph glyph-name="b" unicode="b" horiz-adv-x="600" 
d="M185 700v-170h195c95 0 155 -61 155 -130v-270c0 -69 -60 -130 -155 -130h-300v700h105zM370 460h-185v-390h185c35 0 60 25 60 60v270c0 35 -25 60 -60 60z" />
    <glyph glyph-name="d" unicode="d" horiz-adv-x="600" 
d="M310 -10h-90c-95 0 -155 61 -155 130v280c0 69 60 130 155 130h195v170h105v-700h-65l-20 65h-5c-6 -14 -15 -27 -26 -38c-19 -19 -49 -37 -94 -37zM230 60h80c40 0 66 21 82 42c9 12 17 26 23 43v315h-185c-35 0 -60 -25 -60 -60v-280c0 -35 25 -60 60 -60z" />
    <glyph glyph-name="e" unicode="e" horiz-adv-x="570" 
d="M505 410v-185h-335v-95c0 -35 25 -60 60 -60h255v-70h-265c-95 0 -155 61 -155 130v280c0 69 60 130 155 130h130c95 0 155 -61 155 -130zM170 410v-115h230v115c0 35 -25 60 -60 60h-110c-35 0 -60 -25 -60 -60z" />
    <glyph glyph-name="f" unicode="f" horiz-adv-x="425" 
d="M380 385h-195v-385h-105v580c0 69 60 130 155 130h210v-35l-30 -35h-170c-35 0 -60 -25 -60 -60v-125h195v-70z" />
    <glyph glyph-name="g" unicode="g" 
d="M70 325v85c0 69 60 130 155 130h145l35 80h95v-40l-55 -50v-5c15 -6 28 -14 40 -24c20 -19 40 -46 40 -91v-85c0 -69 -60 -130 -155 -130h-170c-11 0 -20 -9 -20 -20v-25c0 -11 9 -20 20 -20h205c95 0 155 -61 155 -130v-40c0 -69 -60 -130 -155 -130h-215
c-95 0 -155 61 -155 130v40c0 40 21 65 42 80c12 9 26 15 43 20v5c-7 2 -13 5 -18 9c-9 7 -17 17 -17 36v25c0 17 8 29 17 36c5 4 11 7 18 9v5c-9 5 -18 11 -25 20c-13 15 -25 40 -25 80zM175 410v-85c0 -35 25 -60 60 -60h125c35 0 60 25 60 60v85c0 35 -25 60 -60 60h-125
c-35 0 -60 -25 -60 -60zM140 0v-40c0 -35 25 -60 60 -60h195c35 0 60 25 60 60v40c0 35 -25 60 -60 60h-195c-35 0 -60 -25 -60 -60z" />
    <glyph glyph-name="h" unicode="h" horiz-adv-x="610" 
d="M370 460h-185v-460h-105v700h105v-170h195c95 0 155 -61 155 -130v-400h-105v400c0 35 -25 60 -60 60z" />
    <glyph glyph-name="i" unicode="i" horiz-adv-x="255" 
d="M180 530v-530h-105v530h105zM180 710v-105h-105v105h105z" />
    <glyph glyph-name="j" unicode="j" horiz-adv-x="270" 
d="M40 -170h-115v70h105c35 0 60 25 60 60v570h105v-570c0 -69 -60 -130 -155 -130zM195 710v-105h-105v105h105z" />
    <glyph glyph-name="k" unicode="k" horiz-adv-x="575" 
d="M185 700v-400h120l115 230h100v-45l-130 -220l145 -220v-45h-100l-130 230h-120v-230h-105v700h105z" />
    <glyph glyph-name="l" unicode="l" horiz-adv-x="305" 
d="M275 -10h-40c-95 0 -155 61 -155 130v580h105v-580c0 -35 25 -60 60 -60h30v-70z" />
    <glyph glyph-name="m" unicode="m" horiz-adv-x="895" 
d="M335 470h-50c-76 0 -102 -76 -105 -84v-386h-105v530h65l20 -65h5c6 13 15 26 26 37c19 19 49 38 94 38h50c43 0 70 -15 89 -30c11 -9 19 -19 26 -30h5c6 11 14 21 24 30c17 15 42 30 81 30h105c95 0 155 -61 155 -130v-410h-105v410c0 35 -23 60 -60 60h-95
c-35 0 -60 -25 -60 -60v-410h-105v410c0 35 -25 60 -60 60z" />
    <glyph glyph-name="n" unicode="n" horiz-adv-x="610" 
d="M370 470h-85c-40 0 -67 -22 -83 -43c-9 -12 -17 -26 -22 -42v-385h-105v530h65l20 -65h5c6 13 15 26 26 37c19 19 49 38 94 38h95c95 0 155 -61 155 -130v-410h-105v410c0 35 -25 60 -60 60z" />
    <glyph glyph-name="o" unicode="o" 
d="M530 410v-290c0 -69 -60 -130 -155 -130h-155c-95 0 -155 61 -155 130v290c0 69 60 130 155 130h155c95 0 155 -61 155 -130zM170 410v-290c0 -35 25 -60 60 -60h135c35 0 60 25 60 60v290c0 35 -25 60 -60 60h-135c-35 0 -60 -25 -60 -60z" />
    <glyph glyph-name="p" unicode="p" 
d="M285 540h90c95 0 155 -61 155 -130v-280c0 -69 -60 -130 -155 -130h-195v-170h-105v700h65l20 -65h5c6 13 15 26 26 37c19 19 49 38 94 38zM365 470h-80c-40 0 -67 -22 -83 -43c-9 -12 -17 -26 -22 -42v-315h185c35 0 60 25 60 60v280c0 35 -25 60 -60 60z" />
    <glyph glyph-name="q" unicode="q" 
d="M415 -170v170h-195c-95 0 -155 61 -155 130v270c0 69 60 130 155 130h300v-700h-105zM230 70h185v390h-185c-35 0 -60 -25 -60 -60v-270c0 -35 25 -60 60 -60z" />
    <glyph glyph-name="r" unicode="r" horiz-adv-x="435" 
d="M160 465h5c6 13 15 26 26 37c19 19 49 38 94 38h130v-80h-130c-39 0 -64 -19 -81 -38c-10 -11 -18 -24 -24 -37v-385h-105v530h65z" />
    <glyph glyph-name="s" unicode="s" horiz-adv-x="530" 
d="M150 400v-35c0 -25 15 -40 45 -45l180 -30c65 -9 110 -54 110 -125v-35c0 -69 -60 -130 -155 -130h-285v70h275c35 0 60 25 60 60v35c0 25 -15 40 -45 45l-180 30c-65 9 -110 54 -110 125v35c0 69 60 130 155 130h260v-35l-30 -35h-220c-35 0 -60 -25 -60 -60z" />
    <glyph glyph-name="t" unicode="t" horiz-adv-x="440" 
d="M360 530v-70h-150v-340c0 -35 25 -60 60 -60h155v-70h-165c-95 0 -155 61 -155 130v340h-85v70h85l55 140h50v-140h150z" />
    <glyph glyph-name="u" unicode="u" horiz-adv-x="610" 
d="M240 60h85c40 0 66 21 82 42c9 12 17 26 23 43v385h105v-530h-65l-20 65h-5c-6 -14 -15 -27 -26 -38c-19 -19 -49 -37 -94 -37h-95c-95 0 -155 61 -155 130v410h105v-410c0 -35 25 -60 60 -60z" />
    <glyph glyph-name="v" unicode="v" horiz-adv-x="556" 
d="M345 0h-135l-180 485v45h100l145 -445h5l146 445h100v-45z" />
    <glyph glyph-name="w" unicode="w" horiz-adv-x="805" 
d="M470 455l110 -355h5l80 430h100v-45l-110 -485h-140l-110 365h-5l-110 -365h-140l-110 485v45h100l80 -430h5l110 355h135z" />
    <glyph glyph-name="y" unicode="y" horiz-adv-x="540" 
d="M515 485l-190 -525c-24 -69 -85 -130 -180 -130h-50v70h50c40 0 63 25 75 60l10 30v10l-205 485v45h100l155 -435h5l130 435h100v-45z" />
    <glyph glyph-name="z" unicode="z" horiz-adv-x="495" 
d="M325 450v10h-265l-30 35v35h425v-65l-295 -385v-10h305v-70h-435v65z" />
    <glyph glyph-name="space" unicode=" " horiz-adv-x="300" 
 />
    <glyph glyph-name="one" unicode="1" horiz-adv-x="365" 
d="M20 660l170 40h80v-700h-110v610h-140v50z" />
    <glyph glyph-name="two" unicode="2" horiz-adv-x="555" 
d="M25 75l309 330c11 10 20 21 28 32c15 19 28 43 28 63v50c0 40 -30 70 -70 70h-255l-30 35v45h295c111 0 170 -59 170 -150v-50c0 -39 -22 -77 -43 -106c-12 -17 -26 -34 -42 -49l-250 -260v-5h335v-80h-475v75z" />
    <glyph glyph-name="three" unicode="3" horiz-adv-x="560" 
d="M505 250v-100c0 -91 -59 -150 -170 -150h-305v80h295c40 0 70 30 70 70v100c0 40 -30 70 -70 70h-195v70l230 225v5h-310l-30 35v45h465v-75l-220 -220v-5h70c111 0 170 -59 170 -150z" />
    <glyph glyph-name="four" unicode="4" horiz-adv-x="610" 
d="M490 0h-110v150h-360v70l325 480h145v-470h100v-80h-100v-150zM380 580h-5l-235 -345v-5h240v350z" />
    <glyph glyph-name="five" unicode="5" horiz-adv-x="590" 
d="M75 340v360h435v-45l-30 -35h-295v-200h180c111 0 170 -59 170 -150v-120c0 -91 -59 -150 -170 -150h-290v80h280c40 0 70 30 70 70v120c0 40 -30 70 -70 70h-280z" />
    <glyph glyph-name="six" unicode="6" horiz-adv-x="620" 
d="M565 280v-140c0 -91 -59 -150 -170 -150h-145c-111 0 -170 59 -170 150v410c0 91 59 150 170 150h280v-45l-30 -35h-240c-40 0 -70 -30 -70 -70v-120h205c111 0 170 -59 170 -150zM190 350v-210c0 -40 30 -70 70 -70h125c40 0 70 30 70 70v140c0 40 -30 70 -70 70h-195z
" />
    <glyph glyph-name="seven" unicode="7" horiz-adv-x="510" 
d="M230 0h-110v50l250 565v5h-360v80h480v-70z" />
    <glyph glyph-name="eight" unicode="8" horiz-adv-x="640" 
d="M405 -10h-170c-111 0 -170 59 -170 150v115c0 51 27 79 55 95c16 9 34 16 55 20v5c-17 4 -32 10 -45 18c-23 15 -45 39 -45 82v85c0 91 59 150 170 150h130c111 0 170 -59 170 -150v-85c0 -43 -22 -67 -45 -82c-13 -8 -28 -14 -45 -18v-5c20 -4 38 -11 55 -20
c27 -16 55 -44 55 -95v-115c0 -91 -59 -150 -170 -150zM395 325h-150c-40 0 -70 -30 -70 -70v-115c0 -40 30 -70 70 -70h150c40 0 70 30 70 70v115c0 40 -30 70 -70 70zM375 630h-110c-40 0 -70 -30 -70 -70v-85c0 -40 30 -70 70 -70h110c40 0 70 30 70 70v85
c0 40 -30 70 -70 70z" />
    <glyph glyph-name="nine" unicode="9" horiz-adv-x="620" 
d="M55 420v140c0 91 59 150 170 150h145c111 0 170 -59 170 -150v-410c0 -91 -59 -150 -170 -150h-290v80h280c40 0 70 30 70 70v120h-205c-111 0 -170 59 -170 150zM430 350v210c0 40 -30 70 -70 70h-125c-40 0 -70 -30 -70 -70v-140c0 -40 30 -70 70 -70h195z" />
    <glyph glyph-name="zero" unicode="0" horiz-adv-x="650" 
d="M460 140v420c0 40 -30 70 -70 70h-130c-40 0 -70 -30 -70 -70v-420c0 -40 30 -70 70 -70h130c40 0 70 30 70 70zM570 560v-420c0 -91 -59 -150 -170 -150h-150c-111 0 -170 59 -170 150v420c0 91 59 150 170 150h150c111 0 170 -59 170 -150z" />
    <glyph glyph-name="question" unicode="?" horiz-adv-x="499" 
d="M139 215v35c0 64 36 102 60 115l100 55c20 11 40 29 40 60v70c0 40 -30 70 -70 70h-239l-30 35v45h279c111 0 170 -59 170 -150v-70c0 -60 -35 -96 -70 -115l-100 -55c-25 -15 -45 -35 -45 -60v-35h-95zM239 120v-120h-105v120h105z" />
    <glyph glyph-name="colon" unicode=":" horiz-adv-x="225" 
d="M165 120v-120h-105v120h105zM165 530v-120h-105v120h105z" />
    <glyph glyph-name="semicolon" unicode=";" horiz-adv-x="225" 
d="M165 530v-120h-105v120h105zM165 35l-50 -135h-55v220h105v-85z" />
    <glyph glyph-name="period" unicode="." horiz-adv-x="225" 
d="M165 120v-120h-105v120h105z" />
    <glyph glyph-name="comma" unicode="," horiz-adv-x="225" 
d="M165 35l-50 -135h-55v220h105v-85z" />
    <glyph glyph-name="exclam" unicode="!" horiz-adv-x="280" 
d="M105 215l-25 315v170h120v-170l-20 -315h-75zM195 120v-120h-105v120h105z" />
    <glyph glyph-name="numbersign" unicode="#" horiz-adv-x="705" 
d="M70 450v80h120l25 170h105l-25 -170h175l25 170h105l-25 -170h100v-80h-115l-30 -200h105v-80h-120l-25 -170h-105l25 170h-175l-25 -170h-105l25 170h-100v80h115l30 200h-105zM280 450l-30 -200h175l30 200h-175z" />
    <glyph glyph-name="ampersand" unicode="&#x26;" horiz-adv-x="665" 
d="M335 -10h-126c-111 0 -169 59 -169 150v85c0 60 38 95 77 115c23 12 49 20 78 25v5c-14 12 -27 25 -38 40c-19 25 -37 60 -37 100v40c0 91 59 150 180 150h240v-45l-30 -35h-210c-40 0 -70 -30 -70 -70v-40c0 -25 22 -56 45 -83c13 -15 28 -31 45 -46l335 -341v-40h-100
l-75 75c-9 -17 -21 -31 -35 -43c-24 -21 -59 -42 -110 -42zM219 70h116c35 0 56 15 71 30c8 9 14 19 19 30l-175 180c-65 0 -100 -34 -100 -85v-85c0 -40 29 -70 69 -70z" />
    <glyph glyph-name="dollar" unicode="$" horiz-adv-x="590" 
d="M240 790h110v-90h160v-45l-30 -35h-250c-40 0 -70 -30 -70 -70v-60c0 -35 25 -62 60 -70l190 -45c80 -19 130 -70 130 -155v-70c0 -91 -59 -150 -170 -150h-20v-90h-110v90h-190v80h310c40 0 70 30 70 70v70c0 35 -25 62 -60 70l-190 45c-80 19 -130 70 -130 155v60
c0 91 59 150 170 150h20v90z" />
    <glyph glyph-name="Euro" unicode="&#x20ac;" horiz-adv-x="615" 
d="M30 470h80v80c0 91 59 150 180 150h285v-45l-30 -35h-255c-40 0 -70 -30 -70 -70v-80h240v-80h-240v-80h240v-80h-240v-80c0 -40 30 -70 70 -70h285v-80h-285c-121 0 -180 59 -180 150v80h-80v80h80v80h-80v80z" />
    <glyph glyph-name="afii61352" unicode="&#x2116;" horiz-adv-x="1060" 
d="M90 700h120l290 -540h5l-15 170v370h110v-700h-120l-290 540h-5l15 -170v-370h-110v700zM715 290h295v-80h-295v80zM705 475v130c0 65 40 105 120 105h75c80 0 120 -40 120 -105v-130c0 -65 -40 -105 -120 -105h-75c-80 0 -120 40 -120 105zM795 605v-130
c0 -27 13 -40 40 -40h55c27 0 40 13 40 40v130c0 27 -13 40 -40 40h-55c-27 0 -40 -13 -40 -40z" />
    <glyph glyph-name="currency" unicode="&#xa4;" horiz-adv-x="675" 
d="M35 360h80v340h330c111 0 170 -59 170 -150v-120c0 -91 -59 -150 -170 -150h-220v-80h280v-80h-280v-120h-110v120h-80v80h80v80h-80v80zM225 620v-260h210c40 0 70 30 70 70v120c0 40 -30 70 -70 70h-210z" />
    <glyph glyph-name="at" unicode="@" horiz-adv-x="895" 
d="M805 570v-380h-65l-20 65h-5c-6 -14 -15 -27 -26 -38c-19 -19 -49 -37 -94 -37h-90c-95 0 -155 61 -155 130v55c0 69 60 130 155 130h195v75c0 40 -30 70 -70 70h-360c-40 0 -70 -30 -70 -70v-440c0 -40 30 -70 70 -70h515v-80h-525c-111 0 -170 59 -170 150v440
c0 91 59 150 170 150h380c105 0 165 -59 165 -150zM515 250h80c40 0 66 21 82 42c9 12 17 26 23 43v90h-185c-35 0 -60 -25 -60 -60v-55c0 -35 25 -60 60 -60z" />
    <glyph glyph-name="guillemotleft" unicode="&#xab;" horiz-adv-x="520" 
d="M365 55l-100 205l100 205h95v-45l-80 -160l80 -160v-45h-95zM160 55l-100 205l100 205h95v-45l-80 -160l80 -160v-45h-95z" />
    <glyph glyph-name="guillemotright" unicode="&#xbb;" horiz-adv-x="520" 
d="M255 260l-100 -205h-95v45l80 160l-80 160v45h95zM460 260l-100 -205h-95v45l80 160l-80 160v45h95z" />
    <glyph glyph-name="quotedblright" unicode="&#x201d;" horiz-adv-x="405" 
d="M165 615l-50 -135h-55v220h105v-85zM345 615l-50 -135h-55v220h105v-85z" />
    <glyph glyph-name="asterisk" unicode="*" horiz-adv-x="420" 
d="M165 570l15 130h60l15 -130l115 25l15 -55l-110 -40l70 -105l-50 -35l-85 95l-85 -95l-50 35l70 105l-110 40l15 55z" />
    <glyph glyph-name="degree" unicode="&#xb0;" horiz-adv-x="405" 
d="M40 475v130c0 65 40 105 120 105h85c80 0 120 -40 120 -105v-130c0 -65 -40 -105 -120 -105h-85c-80 0 -120 40 -120 105zM130 605v-130c0 -27 13 -40 40 -40h65c27 0 40 13 40 40v130c0 27 -13 40 -40 40h-65c-27 0 -40 -13 -40 -40z" />
    <glyph glyph-name="parenleft" unicode="(" horiz-adv-x="360" 
d="M90 -30v650c0 91 59 150 180 150h50v-80h-50c-40 0 -70 -30 -70 -70v-650c0 -40 30 -70 70 -70h50v-80h-50c-121 0 -180 59 -180 150z" />
    <glyph glyph-name="parenright" unicode=")" horiz-adv-x="360" 
d="M270 620v-650c0 -91 -59 -150 -180 -150h-50v80h50c40 0 70 30 70 70v650c0 40 -30 70 -70 70h-50v80h50c121 0 180 -59 180 -150z" />
    <glyph glyph-name="braceleft" unicode="{" horiz-adv-x="400" 
d="M150 300v-5c17 -5 32 -12 45 -21c23 -16 45 -41 45 -84v-220c0 -40 30 -70 70 -70h50v-80h-50c-121 0 -180 59 -180 150v220c0 35 -30 65 -70 65h-10v85h10c40 0 70 30 70 65v215c0 91 59 150 180 150h50v-80h-50c-40 0 -70 -30 -70 -70v-215c0 -43 -22 -68 -45 -84
c-13 -9 -28 -16 -45 -21z" />
    <glyph glyph-name="braceright" unicode="}" horiz-adv-x="400" 
d="M250 295v5c-17 5 -32 12 -45 21c-23 16 -45 41 -45 84v215c0 40 -30 70 -70 70h-50v80h50c121 0 180 -59 180 -150v-215c0 -35 30 -65 70 -65h10v-85h-10c-40 0 -70 -30 -70 -65v-220c0 -91 -59 -150 -180 -150h-50v80h50c40 0 70 30 70 70v220c0 43 22 68 45 84
c13 9 28 16 45 21z" />
    <glyph glyph-name="bracketleft" unicode="[" horiz-adv-x="360" 
d="M320 -180h-230v950h230v-80h-120v-790h120v-80z" />
    <glyph glyph-name="bracketright" unicode="]" horiz-adv-x="360" 
d="M270 -180h-230v80h120v790h-120v80h230v-950z" />
    <glyph glyph-name="hyphen" unicode="-" horiz-adv-x="490" 
d="M40 360h410v-80h-410v80z" />
    <glyph glyph-name="plus" unicode="+" horiz-adv-x="525" 
d="M220 100v180h-180v80h180v180h85v-180h180v-80h-180v-180h-85z" />
    <glyph glyph-name="plusminus" unicode="&#xb1;" horiz-adv-x="545" 
d="M495 90h-445v80h180v190h-180v80h180v180h85v-180h180v-80h-180v-190h180v-80z" />
    <glyph glyph-name="equal" unicode="=" horiz-adv-x="530" 
d="M50 460h430v-80h-430v80zM50 260h430v-80h-430v80z" />
    <glyph glyph-name="asciitilde" unicode="~" horiz-adv-x="500" 
d="M240 400l75 -75l9 -8c6 -5 11 -7 16 -7h10c11 0 20 9 20 20v95h85v-125c0 -45 -30 -75 -75 -75h-45c-20 0 -38 8 -53 17c-8 5 -15 11 -22 18l-75 75c-3 2 -6 4 -9 7c-5 4 -11 8 -16 8h-10c-11 0 -20 -9 -20 -20v-95h-85v125c0 45 30 75 75 75h45c20 0 37 -9 52 -18
c8 -5 16 -11 23 -17z" />
    <glyph glyph-name="underscore" unicode="_" horiz-adv-x="470" 
d="M20 -60h430v-80h-430v80z" />
    <glyph glyph-name="endash" unicode="&#x2013;" horiz-adv-x="590" 
d="M40 340h510v-80h-510v80z" />
    <glyph glyph-name="emdash" unicode="&#x2014;" horiz-adv-x="850" 
d="M40 340h770v-80h-770v80z" />
    <glyph glyph-name="asciicircum" unicode="^" horiz-adv-x="465" 
d="M125 460h-105l165 240h95l165 -240h-105l-105 155h-5z" />
    <glyph glyph-name="grave" unicode="`" horiz-adv-x="290" 
d="M40 700h120l90 -160h-95z" />
    <glyph glyph-name="copyright" unicode="&#xa9;" horiz-adv-x="970" 
d="M890 570v-440c0 -91 -59 -150 -170 -150h-470c-111 0 -170 59 -170 150v440c0 91 59 150 170 150h470c111 0 170 -59 170 -150zM260 60h450c40 0 70 30 70 70v440c0 40 -30 70 -70 70h-450c-40 0 -70 -30 -70 -70v-440c0 -40 30 -70 70 -70zM310 260v180
c0 71 49 120 140 120h200v-40l-30 -35h-160c-25 0 -45 -20 -45 -45v-180c0 -25 20 -45 45 -45h190v-75h-200c-91 0 -140 49 -140 120z" />
    <glyph glyph-name="registered" unicode="&#xae;" horiz-adv-x="970" 
d="M305 560h220c91 0 140 -49 140 -120v-30c0 -40 -20 -65 -40 -80c-12 -9 -25 -15 -40 -20l100 -125v-45h-100l-90 150h-85v-150h-105v420zM515 485h-105v-120h105c25 0 45 20 45 45v30c0 25 -20 45 -45 45zM890 570v-440c0 -91 -59 -150 -170 -150h-470
c-111 0 -170 59 -170 150v440c0 91 59 150 170 150h470c111 0 170 -59 170 -150zM260 60h450c40 0 70 30 70 70v440c0 40 -30 70 -70 70h-450c-40 0 -70 -30 -70 -70v-440c0 -40 30 -70 70 -70z" />
    <glyph glyph-name="trademark" unicode="&#x2122;" horiz-adv-x="865" 
d="M5 635v65h330v-45l-20 -20h-100v-265h-90v265h-120zM510 700l70 -210h5l70 210h115l40 -295v-35h-85l-20 245h-5l-70 -205h-95l-70 205h-5l-20 -245h-85v35l40 295h115z" />
    <glyph glyph-name="slash" unicode="/" horiz-adv-x="490" 
d="M470 710l-355 -760h-95v40l355 760h95v-40z" />
    <glyph glyph-name="bar" unicode="|" horiz-adv-x="290" 
d="M200 -210h-110v980h110v-980z" />
    <glyph glyph-name="backslash" unicode="\" horiz-adv-x="490" 
d="M375 -50l-355 760v40h95l355 -760v-40h-95z" />
    <glyph glyph-name="percent" unicode="%" horiz-adv-x="840" 
d="M585 700h90v-40l-420 -660h-90v40zM40 475v130c0 65 40 105 120 105h75c80 0 120 -40 120 -105v-130c0 -65 -40 -105 -120 -105h-75c-80 0 -120 40 -120 105zM130 605v-130c0 -27 13 -40 40 -40h55c27 0 40 13 40 40v130c0 27 -13 40 -40 40h-55c-27 0 -40 -13 -40 -40z
M485 95v130c0 65 40 105 120 105h75c80 0 120 -40 120 -105v-130c0 -65 -40 -105 -120 -105h-75c-80 0 -120 40 -120 105zM575 225v-130c0 -27 13 -40 40 -40h55c27 0 40 13 40 40v130c0 27 -13 40 -40 40h-55c-27 0 -40 -13 -40 -40z" />
    <glyph glyph-name="paragraph" unicode="&#xb6;" horiz-adv-x="625" 
d="M40 460v100c0 80 60 140 140 140h425v-80h-95v-790h-105v790h-80v-790h-105v490h-40c-80 0 -140 60 -140 140z" />
    <glyph glyph-name="section" unicode="&#xa7;" horiz-adv-x="550" 
d="M165 570v-60c0 -25 20 -46 45 -50l175 -30c65 -11 115 -60 115 -125v-95c0 -43 -15 -67 -30 -82c-9 -8 -19 -14 -30 -18v-5c11 -5 21 -11 30 -18c15 -13 30 -35 30 -67v-60c0 -69 -60 -130 -155 -130h-285v70h275c35 0 60 25 60 60v60c0 25 -20 46 -45 50l-185 30
c-65 11 -115 60 -115 125v95c0 40 16 65 35 80c10 9 22 15 35 20v5c-11 5 -21 11 -30 18c-15 13 -30 34 -30 67v60c0 69 60 130 155 130h260v-35l-30 -35h-220c-35 0 -60 -25 -60 -60zM155 320v-95c0 -25 20 -46 45 -50l140 -25c31 0 55 25 55 60v95c0 25 -20 46 -45 50
l-140 25c-31 0 -55 -25 -55 -60z" />
    <glyph glyph-name="dagger" unicode="&#x2020;" horiz-adv-x="520" 
d="M300 700l15 -180h175v-80h-175v-610h-110v610h-175v80h175l15 180h80z" />
    <glyph glyph-name="quotesingle" unicode="'" horiz-adv-x="200" 
d="M70 480l-20 120v100h100v-100l-20 -120h-60z" />
    <glyph glyph-name="quotedbl" unicode="&#x22;" horiz-adv-x="370" 
d="M70 480l-20 120v100h100v-100l-20 -120h-60zM240 480l-20 120v100h100v-100l-20 -120h-60z" />
    <glyph glyph-name="less" unicode="&#x3c;" horiz-adv-x="520" 
d="M160 270v-5l305 -160v-105l-410 220v95l410 220v-104z" />
    <glyph glyph-name="greater" unicode="&#x3e;" horiz-adv-x="520" 
d="M360 265v5l-305 160v105l410 -220v-95l-410 -220v105z" />
    <glyph glyph-name="guilsinglleft" unicode="&#x2039;" horiz-adv-x="335" 
d="M180 40l-120 220l120 220h95v-45l-100 -175l100 -175v-45h-95z" />
    <glyph glyph-name="periodcentered" unicode="&#xb7;" horiz-adv-x="300" 
d="M202 410v-120h-105v120h105z" />
    <glyph glyph-name="bullet" unicode="&#x2022;" horiz-adv-x="400" 
d="M270 340v-60c0 -20 -20 -40 -40 -40h-60c-20 0 -40 20 -40 40v60c0 20 20 40 40 40h60c20 0 40 -20 40 -40z" />
    <glyph glyph-name="daggerdbl" unicode="&#x2021;" horiz-adv-x="540" 
d="M325 10l-15 -180h-80l-15 180h-175v80h175v350h-175v80h175l15 180h80l15 -180h175v-80h-175v-350h175v-80h-175z" />
    <glyph glyph-name="logicalnot" unicode="&#xac;" horiz-adv-x="510" 
d="M40 430h430v-195h-100v115h-330v80z" />
    <glyph glyph-name="brokenbar" unicode="&#xa6;" horiz-adv-x="290" 
d="M200 -210h-110v410h110v-410zM200 770v-410h-110v410h110z" />
    <glyph glyph-name="perthousand" unicode="&#x2030;" horiz-adv-x="1210" 
d="M485 95v130c0 65 39 105 130 105h55c91 0 130 -40 130 -105v-130c0 -65 -39 -105 -130 -105h-55c-91 0 -130 40 -130 105zM585 700h90v-40l-420 -660h-90v40zM575 225v-130c0 -27 13 -40 40 -40h55c27 0 40 13 40 40v130c0 27 -13 40 -40 40h-55c-27 0 -40 -13 -40 -40z
M40 475v130c0 65 39 105 130 105h55c91 0 130 -40 130 -105v-130c0 -65 -39 -105 -130 -105h-55c-91 0 -130 40 -130 105zM130 605v-130c0 -27 13 -40 40 -40h55c27 0 40 13 40 40v130c0 27 -13 40 -40 40h-55c-27 0 -40 -13 -40 -40zM855 95v130c0 65 39 105 130 105h55
c91 0 130 -40 130 -105v-130c0 -65 -39 -105 -130 -105h-55c-91 0 -130 40 -130 105zM945 225v-130c0 -27 13 -40 40 -40h55c27 0 40 13 40 40v130c0 27 -13 40 -40 40h-55c-27 0 -40 -13 -40 -40z" />
    <glyph glyph-name="afii10053" unicode="&#x404;" 
d="M80 150v400c0 91 59 150 170 150h305v-45l-30 -35h-265c-40 0 -70 -30 -70 -70v-160h245v-80h-245v-160c0 -40 30 -70 70 -70h295v-80h-305c-111 0 -170 59 -170 150z" />
    <glyph glyph-name="afii10101" unicode="&#x454;" horiz-adv-x="520" 
d="M65 130v270c0 69 60 130 155 130h260v-40l-30 -30h-220c-35 0 -60 -25 -60 -60v-95h200v-70h-200v-105c0 -35 25 -60 60 -60h250v-70h-260c-95 0 -155 61 -155 130z" />
    <glyph glyph-name="mu" unicode="&#xb5;" horiz-adv-x="610" 
d="M240 60h85c40 0 66 21 82 42c9 12 17 26 23 43v385h105v-530h-65l-20 65h-5c-6 -14 -15 -27 -26 -38c-19 -19 -49 -37 -94 -37h-80c-20 0 -34 5 -45 12c-6 3 -11 8 -15 13h-5v-185h-105v700h105v-410c0 -35 25 -60 60 -60z" />
    <glyph glyph-name="afii10060" unicode="&#x40b;" horiz-adv-x="695" 
d="M0 620v80h450v-45l-30 -35h-180v-180h220c111 0 170 -59 170 -150v-290h-110v290c0 40 -30 70 -70 70h-210v-360h-110v620h-130z" />
    <glyph glyph-name="afii10108" unicode="&#x45b;" horiz-adv-x="615" 
d="M350 590v-70h-150v-90h195c95 0 155 -61 155 -130v-300h-105v300c0 35 -25 60 -60 60h-185v-360h-105v520h-85v70h85l55 110h50v-110h150z" />
    <glyph glyph-name="afii10051" unicode="&#x402;" horiz-adv-x="685" 
d="M415 70h35c40 0 70 30 70 70v150c0 40 -30 70 -70 70h-210v-360h-110v620h-130v80h450v-45l-30 -35h-180v-180h220c111 0 170 -59 170 -150v-150c0 -91 -59 -150 -180 -150h-35v80z" />
    <glyph glyph-name="afii10099" unicode="&#x452;" horiz-adv-x="605" 
d="M385 -10h-30v70h30c35 0 60 25 60 60v180c0 35 -25 60 -60 60h-185v-360h-105v520h-85v70h85l55 110h50v-110h150v-70h-150v-90h195c95 0 155 -61 155 -130v-180c0 -69 -60 -130 -165 -130z" />
    <glyph glyph-name="afii10050" unicode="&#x490;" horiz-adv-x="545" 
d="M535 620h-335v-620h-110v700h341l24 105h80v-185z" />
    <glyph glyph-name="afii10098" unicode="&#x491;" horiz-adv-x="475" 
d="M75 0v530h285l25 100h80v-170h-285v-460h-105z" />
    <glyph glyph-name="afii10193" unicode="&#x45f;" horiz-adv-x="610" 
d="M535 0h-175l-20 -130h-70l-20 130h-175v530h105v-460h250v460h105v-530z" />
    <glyph glyph-name="afii10145" unicode="&#x40f;" horiz-adv-x="690" 
d="M90 700h110v-620h290v620h110v-700h-510v700zM380 -140h-70l-25 140h120z" />
    <glyph glyph-name="afii10106" unicode="&#x459;" horiz-adv-x="870" 
d="M825 210v-80c0 -69 -60 -130 -155 -130h-275v460h-165l-25 -330c-7 -80 -65 -140 -165 -140h-30v70h30c31 0 56 25 60 70l35 400h365v-190h170c95 0 155 -61 155 -130zM500 70h160c35 0 60 25 60 60v80c0 35 -25 60 -60 60h-160v-200z" />
    <glyph glyph-name="afii10058" unicode="&#x409;" horiz-adv-x="990" 
d="M40 -10h-30v80h30c35 0 65 29 70 80l50 550h410v-265h195c111 0 170 -59 170 -150v-135c0 -91 -59 -150 -170 -150h-305v620h-200l-40 -470c-9 -105 -64 -160 -180 -160zM570 355v-275h185c40 0 70 30 70 70v135c0 40 -30 70 -70 70h-185z" />
    <glyph glyph-name="afii10059" unicode="&#x40a;" horiz-adv-x="990" 
d="M200 0h-110v700h110v-285h260v285h110v-285h195c111 0 170 -59 170 -150v-115c0 -91 -59 -150 -170 -150h-305v335h-260v-335zM570 335v-255h185c40 0 70 30 70 70v115c0 40 -30 70 -70 70h-185z" />
    <glyph glyph-name="afii10107" unicode="&#x45a;" horiz-adv-x="885" 
d="M840 195v-65c0 -69 -60 -130 -155 -130h-275v255h-230v-255h-105v530h105v-205h230v205h105v-205h170c95 0 155 -61 155 -130zM515 70h160c35 0 60 25 60 60v65c0 35 -25 60 -60 60h-160v-185z" />
    <glyph glyph-name="A" unicode="A" horiz-adv-x="655" 
d="M520 0l-55 170h-275l-55 -170h-105v50l225 650h145l225 -650v-50h-105zM325 600l-110 -350h225l-110 350h-5z" />
    <glyph glyph-name="afii10023" unicode="&#x401;" horiz-adv-x="590" 
d="M555 700v-45l-30 -35h-325v-230h265v-80h-265v-230h355v-80h-465v700h465zM265 890v-105h-105v105h105zM485 890v-105h-105v105h105z" />
    <glyph glyph-name="afii10104" unicode="&#x457;" horiz-adv-x="305" 
d="M205 530v-530h-105v530h105zM105 710v-105h-105v105h105zM305 710v-105h-105v105h105z" />
    <glyph glyph-name="guilsinglright" unicode="&#x203a;" horiz-adv-x="335" 
d="M275 260l-120 -220h-95v45l100 175l-100 175v45h95z" />
    <glyph glyph-name="afii10065" unicode="&#x430;" horiz-adv-x="575" 
d="M290 -10h-90c-95 0 -155 61 -155 130v55c0 69 60 130 155 130h195v95c0 35 -25 60 -60 60h-240v70h250c95 0 155 -61 155 -130v-400h-65l-20 65h-5c-6 -14 -15 -27 -26 -38c-19 -19 -49 -37 -94 -37zM210 60h80c40 0 66 21 82 42c9 12 17 26 23 43v90h-185
c-35 0 -60 -25 -60 -60v-55c0 -35 25 -60 60 -60z" />
    <glyph glyph-name="afii10070" unicode="&#x435;" horiz-adv-x="570" 
d="M505 410v-185h-335v-95c0 -35 25 -60 60 -60h255v-70h-265c-95 0 -155 61 -155 130v280c0 69 60 130 155 130h130c95 0 155 -61 155 -130zM170 410v-115h230v115c0 35 -25 60 -60 60h-110c-35 0 -60 -25 -60 -60z" />
    <glyph glyph-name="afii10076" unicode="&#x43a;" horiz-adv-x="570" 
d="M180 530v-230h120l115 230h100v-45l-130 -220l145 -220v-45h-100l-130 230h-120v-230h-105v530h105z" />
    <glyph glyph-name="quotedblleft" unicode="&#x201c;" horiz-adv-x="405" 
d="M240 565l50 135h55v-220h-105v85zM60 565l50 135h55v-220h-105v85z" />
    <glyph glyph-name="quoteleft" unicode="&#x2018;" horiz-adv-x="225" 
d="M60 565l50 135h55v-220h-105v85z" />
    <glyph glyph-name="quoteright" unicode="&#x2019;" horiz-adv-x="225" 
d="M165 615l-50 -135h-55v220h105v-85z" />
    <glyph glyph-name="quotesinglbase" unicode="&#x201a;" horiz-adv-x="225" 
d="M165 35l-50 -135h-55v220h105v-85z" />
    <glyph glyph-name="quotedblbase" unicode="&#x201e;" horiz-adv-x="405" 
d="M165 35l-50 -135h-55v220h105v-85zM345 35l-50 -135h-55v220h105v-85z" />
    <glyph glyph-name="ellipsis" unicode="&#x2026;" horiz-adv-x="695" 
d="M165 120v-120h-105v120h105zM400 120v-120h-105v120h105zM635 120v-120h-105v120h105z" />
    <glyph glyph-name="afii10105" unicode="&#x458;" horiz-adv-x="270" 
d="M40 -170h-115v70h105c35 0 60 25 60 60v570h105v-570c0 -69 -60 -130 -155 -130zM195 710v-105h-105v105h105z" />
    <glyph glyph-name="afii10103" unicode="&#x456;" horiz-adv-x="255" 
d="M180 530v-530h-105v530h105zM180 710v-105h-105v105h105z" />
    <glyph glyph-name="afii10055" unicode="&#x406;" horiz-adv-x="290" 
d="M200 0h-110v700h110v-700z" />
    <glyph glyph-name="afii10056" unicode="&#x407;" horiz-adv-x="310" 
d="M210 0h-110v700h110v-700zM105 865v-105h-105v105h105zM310 865v-105h-105v105h105z" />
    <glyph glyph-name="afii10052" unicode="&#x403;" horiz-adv-x="545" 
d="M340 940h120l-115 -160h-95zM535 700v-45l-30 -35h-305v-620h-110v700h445z" />
    <glyph glyph-name="afii10100" unicode="&#x453;" horiz-adv-x="475" 
d="M294 770h120l-115 -160h-95zM75 0v530h390v-35l-30 -35h-255v-460h-105z" />
    <glyph glyph-name="afii10061" unicode="&#x40c;" horiz-adv-x="655" 
d="M360 920h120l-115 -160h-95zM200 0h-110v700h110v-305h135l155 305h105v-50l-170 -295l190 -305v-50h-105l-175 315h-135v-315z" />
    <glyph glyph-name="afii10109" unicode="&#x45c;" horiz-adv-x="570" 
d="M309 750h120l-115 -160h-95zM180 530v-230h120l115 230h100v-45l-130 -220l145 -220v-45h-100l-130 230h-120v-230h-105v530h105z" />
    <glyph glyph-name="afii10110" unicode="&#x45e;" horiz-adv-x="540" 
d="M320 600h-100c-65 0 -100 35 -100 95v45h85v-45c0 -20 10 -30 30 -30h70c20 0 30 10 30 30v45h85v-45c0 -60 -35 -95 -100 -95zM515 485l-190 -525c-24 -69 -85 -130 -180 -130h-50v70h50c40 0 63 25 75 60l10 30v10l-205 485v45h100l155 -435h5l130 435h100v-45z" />
    <glyph glyph-name="afii10054" unicode="&#x405;" horiz-adv-x="590" 
d="M370 290l-190 45c-80 19 -130 70 -130 155v60c0 91 59 150 170 150h290v-45l-30 -35h-250c-40 0 -70 -30 -70 -70v-60c0 -35 25 -62 60 -70l190 -45c80 -19 130 -70 130 -155v-70c0 -91 -59 -150 -170 -150h-320v80h310c40 0 70 30 70 70v70c0 35 -25 62 -60 70z" />
    <glyph glyph-name="afii10057" unicode="&#x408;" horiz-adv-x="525" 
d="M10 70h245c40 0 70 30 70 70v560h110v-560c0 -91 -59 -150 -170 -150h-255v80z" />
    <glyph glyph-name="afii10039" unicode="&#x425;" horiz-adv-x="605" 
d="M305 280h-5l-165 -280h-105v50l205 305l-190 295v50h105l150 -280h5l150 280h105v-50l-190 -295l205 -305v-50h-105z" />
    <glyph glyph-name="x" unicode="x" horiz-adv-x="535" 
d="M270 200h-5l-135 -200h-100v45l175 220l-165 220v45h100l125 -200h5l125 200h100v-45l-165 -220l175 -220v-45h-100z" />
    <glyph glyph-name="afii10062" unicode="&#x40e;" horiz-adv-x="625" 
d="M370 750h-110c-67 0 -100 33 -100 100v50h90v-50c0 -20 10 -30 30 -30h70c20 0 30 10 30 30v50h90v-50c0 -67 -33 -100 -100 -100zM25 700h105l200 -435h5l160 435h105v-50l-215 -510c-39 -91 -100 -150 -200 -150h-65v80h65c35 0 65 30 85 70l10 20l-255 490v50z" />
    <glyph glyph-name="c" unicode="c" horiz-adv-x="520" 
d="M65 130v270c0 69 60 130 155 130h260v-35l-30 -35h-220c-35 0 -60 -25 -60 -60v-270c0 -35 25 -60 60 -60h250v-70h-260c-95 0 -155 61 -155 130z" />
    <glyph glyph-name="uni00AD" unicode="&#xad;" horiz-adv-x="500" 
d="M40 360h420v-80h-420v80z" />
    <glyph glyph-name="afii10102" unicode="&#x455;" horiz-adv-x="530" 
d="M150 400v-35c0 -25 15 -40 45 -45l180 -30c65 -9 110 -54 110 -125v-35c0 -69 -60 -130 -155 -130h-285v70h275c35 0 60 25 60 60v35c0 25 -15 40 -45 45l-180 30c-65 9 -110 54 -110 125v35c0 69 60 130 155 130h260v-35l-30 -35h-220c-35 0 -60 -25 -60 -60z" />
    <glyph glyph-name="B" unicode="B" horiz-adv-x="660" 
d="M460 470v80c0 40 -30 70 -70 70h-190v-220h190c40 0 70 30 70 70zM490 365v-5c20 -3 38 -10 55 -19c27 -16 55 -44 55 -91v-100c0 -91 -59 -150 -170 -150h-340v700h310c111 0 170 -59 170 -150v-80c0 -45 -20 -71 -40 -86c-12 -9 -25 -15 -40 -19zM420 320h-220v-240
h220c40 0 70 30 70 70v100c0 40 -30 70 -70 70z" />
    <glyph glyph-name="acute" unicode="&#xb4;" horiz-adv-x="290" 
d="M130 700h120l-115 -160h-95z" />
    <glyph glyph-name="breve" unicode="&#x2d8;" horiz-adv-x="380" 
d="M240 560h-100c-65 0 -100 35 -100 95v45h85v-45c0 -20 10 -30 30 -30h70c20 0 30 10 30 30v45h85v-45c0 -60 -35 -95 -100 -95z" />
    <glyph glyph-name="caron" unicode="&#x2c7;" horiz-adv-x="430" 
d="M295 700h95l-130 -150h-90l-130 150h95l80 -90z" />
    <glyph glyph-name="circumflex" unicode="&#x2c6;" horiz-adv-x="430" 
d="M390 550h-95l-80 90l-80 -90h-95l130 150h90z" />
    <glyph glyph-name="cedilla" unicode="&#xb8;" horiz-adv-x="305" 
d="M65 -105v105h65v-45h40c56 0 95 -39 95 -90v-15c0 -51 -39 -90 -95 -90h-130v60h105c15 0 30 15 30 30v15c0 15 -15 30 -30 30h-80z" />
    <glyph glyph-name="dieresis" unicode="&#xa8;" horiz-adv-x="385" 
d="M145 700v-105h-105v105h105zM345 700v-105h-105v105h105z" />
    <glyph glyph-name="commaaccent" horiz-adv-x="175" 
d="M135 -135l-40 -110h-55v195h95v-85z" />
    <glyph glyph-name="dotaccent" unicode="&#x2d9;" horiz-adv-x="185" 
d="M145 700v-105h-105v105h105z" />
    <glyph glyph-name="hungarumlaut" unicode="&#x2dd;" horiz-adv-x="455" 
d="M130 700h105l-105 -160h-90zM310 700h105l-105 -160h-90z" />
    <glyph glyph-name="macron" unicode="&#xaf;" horiz-adv-x="410" 
d="M355 700v-70h-300v70h300z" />
    <glyph glyph-name="ring" unicode="&#x2da;" horiz-adv-x="320" 
d="M280 620v-50c0 -45 -34 -80 -85 -80h-70c-51 0 -85 35 -85 80v50c0 40 34 80 85 80h70c51 0 85 -35 85 -80zM150 545h20c17 0 25 8 25 25v50c0 17 -8 25 -25 25h-20c-17 0 -25 -8 -25 -25v-50c0 -17 8 -25 25 -25z" />
    <glyph glyph-name="ogonek" unicode="&#x2db;" horiz-adv-x="285" 
d="M140 0h85v-20c-18 -7 -34 -16 -48 -25c-24 -16 -47 -39 -47 -70c0 -20 15 -35 35 -35h80v-60h-80c-91 0 -125 35 -125 95c0 37 25 67 50 86c15 11 31 21 50 29z" />
    <glyph glyph-name="tilde" unicode="&#x2dc;" horiz-adv-x="380" 
d="M260 695h80v-70c0 -40 -30 -70 -70 -70h-25c-11 0 -21 5 -30 10c-5 3 -10 6 -15 10l-39 35c-3 2 -6 4 -9 7c-5 4 -12 8 -16 8c-15 0 -16 -9 -16 -20v-45h-80v70c0 40 30 70 70 70h25c11 0 21 -5 30 -10c5 -3 10 -6 15 -10l40 -35l9 -8c6 -5 11 -7 16 -7c15 0 15 9 15 20
v45z" />
    <glyph glyph-name="Aacute" unicode="&#xc1;" horiz-adv-x="655" 
d="M520 0l-55 170h-275l-55 -170h-105v50l225 650h145l225 -650v-50h-105zM325 600l-110 -350h225l-110 350h-5zM362 930h120l-115 -160h-95z" />
    <glyph glyph-name="Abreve" unicode="&#x102;" horiz-adv-x="655" 
d="M520 0l-55 170h-275l-55 -170h-105v50l225 650h145l225 -650v-50h-105zM325 600l-110 -350h225l-110 350h-5zM377 760h-100c-65 0 -100 35 -100 95v45h85v-45c0 -20 10 -30 30 -30h70c20 0 30 10 30 30v45h85v-45c0 -60 -35 -95 -100 -95z" />
    <glyph glyph-name="Acircumflex" unicode="&#xc2;" horiz-adv-x="655" 
d="M520 0l-55 170h-275l-55 -170h-105v50l225 650h145l225 -650v-50h-105zM325 600l-110 -350h225l-110 350h-5zM502 760h-95l-80 90l-80 -90h-95l130 150h90z" />
    <glyph glyph-name="Agrave" unicode="&#xc0;" horiz-adv-x="655" 
d="M520 0l-55 170h-275l-55 -170h-105v50l225 650h145l225 -650v-50h-105zM325 600l-110 -350h225l-110 350h-5zM162 930h120l90 -160h-95z" />
    <glyph glyph-name="Adieresis" unicode="&#xc4;" horiz-adv-x="655" 
d="M520 0l-55 170h-275l-55 -170h-105v50l225 650h145l225 -650v-50h-105zM325 600l-110 -350h225l-110 350h-5zM280 860v-105h-105v105h105zM480 860v-105h-105v105h105z" />
    <glyph glyph-name="Amacron" unicode="&#x100;" horiz-adv-x="655" 
d="M520 0l-55 170h-275l-55 -170h-105v50l225 650h145l225 -650v-50h-105zM325 600l-110 -350h225l-110 350h-5zM477 850v-70h-300v70h300z" />
    <glyph glyph-name="Aogonek" unicode="&#x104;" horiz-adv-x="655" 
d="M520 0l-55 170h-275l-55 -170h-105v50l225 650h145l225 -650v-70c-18 -7 -34 -16 -48 -25c-24 -16 -47 -39 -47 -70c0 -20 15 -35 35 -35h80v-60h-80c-91 0 -125 35 -125 95c0 37 25 67 50 86c15 11 31 21 50 29h-20zM325 600l-110 -350h225l-110 350h-5z" />
    <glyph glyph-name="Aring" unicode="&#xc5;" horiz-adv-x="655" 
d="M520 0l-55 170h-275l-55 -170h-105v50l211 609c-21 15 -34 38 -34 66v50c0 40 34 80 85 80h70c51 0 85 -35 85 -80v-50c0 -27 -13 -50 -33 -65l211 -610v-50h-105zM325 600l-110 -350h225l-110 350h-5zM313 700h24c17 0 25 8 25 25v50c0 17 -8 25 -25 25h-20
c-17 0 -25 -8 -25 -25v-50c0 -15 7 -24 21 -25z" />
    <glyph glyph-name="Atilde" unicode="&#xc3;" horiz-adv-x="655" 
d="M520 0l-55 170h-275l-55 -170h-105v50l225 650h145l225 -650v-50h-105zM325 600l-110 -350h225l-110 350h-5zM397 905h80v-70c0 -40 -30 -70 -70 -70h-25c-11 0 -21 5 -30 10c-5 3 -10 6 -15 10l-39 35c-3 2 -6 4 -9 7c-5 4 -12 8 -16 8c-15 0 -16 -9 -16 -20v-45h-80v70
c0 40 30 70 70 70h25c11 0 21 -5 30 -10c5 -3 10 -6 15 -10l40 -35l9 -8c6 -5 11 -7 16 -7c15 0 15 9 15 20v45z" />
    <glyph glyph-name="AE" unicode="&#xc6;" horiz-adv-x="960" 
d="M925 700v-45l-30 -35h-315v-230h255v-80h-255v-230h345v-80h-455v210h-265l-90 -210h-105v50l304 650h611zM385 620l-145 -330h230v330h-85z" />
    <glyph glyph-name="AEacute" unicode="&#x1fc;" horiz-adv-x="960" 
d="M925 700v-45l-30 -35h-315v-230h255v-80h-255v-230h345v-80h-455v210h-265l-90 -210h-105v50l304 650h611zM385 620l-145 -330h230v330h-85zM575 930h120l-115 -160h-95z" />
    <glyph glyph-name="Cacute" unicode="&#x106;" 
d="M80 150v400c0 91 59 150 170 150h305v-45l-30 -35h-265c-40 0 -70 -30 -70 -70v-400c0 -40 30 -70 70 -70h295v-80h-305c-111 0 -170 59 -170 150zM352 930h120l-115 -160h-95z" />
    <glyph glyph-name="Ccaron" unicode="&#x10c;" 
d="M80 150v400c0 91 59 150 170 150h305v-45l-30 -35h-265c-40 0 -70 -30 -70 -70v-400c0 -40 30 -70 70 -70h295v-80h-305c-111 0 -170 59 -170 150zM417 920h95l-130 -150h-90l-130 150h95l80 -90z" />
    <glyph glyph-name="Ccedilla" unicode="&#xc7;" 
d="M80 150v400c0 91 59 150 170 150h305v-45l-30 -35h-265c-40 0 -70 -30 -70 -70v-400c0 -40 30 -70 70 -70h295v-80h-210v-45h40c56 0 95 -39 95 -90v-15c0 -51 -39 -90 -95 -90h-130v60h105c15 0 30 15 30 30v15c0 15 -15 30 -30 30h-80v105h-30c-111 0 -170 59 -170 150
z" />
    <glyph glyph-name="Ccircumflex" unicode="&#x108;" 
d="M80 150v400c0 91 59 150 170 150h305v-45l-30 -35h-265c-40 0 -70 -30 -70 -70v-400c0 -40 30 -70 70 -70h295v-80h-305c-111 0 -170 59 -170 150zM502 770h-95l-80 90l-80 -90h-95l130 150h90z" />
    <glyph glyph-name="Cdotaccent" unicode="&#x10a;" 
d="M80 150v400c0 91 59 150 170 150h305v-45l-30 -35h-265c-40 0 -70 -30 -70 -70v-400c0 -40 30 -70 70 -70h295v-80h-305c-111 0 -170 59 -170 150zM380 870v-105h-105v105h105z" />
    <glyph glyph-name="Dcaron" unicode="&#x10e;" horiz-adv-x="680" 
d="M600 550v-400c0 -91 -59 -150 -170 -150h-340v700h340c111 0 170 -59 170 -150zM420 620h-220v-540h220c40 0 70 30 70 70v400c0 40 -30 70 -70 70zM410 920h95l-130 -150h-90l-130 150h95l80 -90z" />
    <glyph glyph-name="Dcroat" unicode="&#x110;" horiz-adv-x="680" 
d="M600 550v-400c0 -91 -59 -150 -170 -150h-340v320h-70v70h70v310h340c111 0 170 -59 170 -150zM420 620h-220v-230h150v-70h-150v-240h220c40 0 70 30 70 70v400c0 40 -30 70 -70 70z" />
    <glyph glyph-name="Eacute" unicode="&#xc9;" horiz-adv-x="590" 
d="M555 700v-45l-30 -35h-325v-230h265v-80h-265v-230h355v-80h-465v700h465zM340 930h120l-115 -160h-95z" />
    <glyph glyph-name="Ebreve" unicode="&#x114;" horiz-adv-x="590" 
d="M555 700v-45l-30 -35h-325v-230h265v-80h-265v-230h355v-80h-465v700h465zM365 770h-100c-65 0 -100 35 -100 95v45h85v-45c0 -20 10 -30 30 -30h70c20 0 30 10 30 30v45h85v-45c0 -60 -35 -95 -100 -95z" />
    <glyph glyph-name="Ecaron" unicode="&#x11a;" horiz-adv-x="590" 
d="M555 700v-45l-30 -35h-325v-230h265v-80h-265v-230h355v-80h-465v700h465zM395 920h95l-130 -150h-90l-130 150h95l80 -90z" />
    <glyph glyph-name="Ecircumflex" unicode="&#xca;" horiz-adv-x="590" 
d="M555 700v-45l-30 -35h-325v-230h265v-80h-265v-230h355v-80h-465v700h465zM500 770h-95l-80 90l-80 -90h-95l130 150h90z" />
    <glyph glyph-name="Edieresis" unicode="&#xcb;" horiz-adv-x="590" 
d="M555 700v-45l-30 -35h-325v-230h265v-80h-265v-230h355v-80h-465v700h465zM267 880v-105h-105v105h105zM467 880v-105h-105v105h105z" />
    <glyph glyph-name="Edotaccent" unicode="&#x116;" horiz-adv-x="590" 
d="M555 700v-45l-30 -35h-325v-230h265v-80h-265v-230h355v-80h-465v700h465zM367 880v-105h-105v105h105z" />
    <glyph glyph-name="Egrave" unicode="&#xc8;" horiz-adv-x="590" 
d="M555 700v-45l-30 -35h-325v-230h265v-80h-265v-230h355v-80h-465v700h465zM170 930h120l90 -160h-95z" />
    <glyph glyph-name="Emacron" unicode="&#x112;" horiz-adv-x="590" 
d="M555 700v-45l-30 -35h-325v-230h265v-80h-265v-230h355v-80h-465v700h465zM465 870v-70h-300v70h300z" />
    <glyph glyph-name="Eogonek" unicode="&#x118;" horiz-adv-x="590" 
d="M555 700v-45l-30 -35h-325v-230h265v-80h-265v-230h355v-80l-150 -1c-20 -11 -38 -23 -53 -35c-27 -21 -52 -48 -52 -79c0 -20 15 -35 35 -35h80v-60h-80c-91 0 -125 35 -125 95c0 37 25 67 50 86c15 11 31 21 50 29h-220v700h465z" />
    <glyph glyph-name="Gbreve" unicode="&#x11e;" horiz-adv-x="675" 
d="M480 310h-150v80h260v-390h-340c-111 0 -170 59 -170 150v400c0 91 59 150 170 150h305v-45l-30 -35h-265c-40 0 -70 -30 -70 -70v-400c0 -40 30 -70 70 -70h220v230zM377 770h-100c-65 0 -100 35 -100 95v45h85v-45c0 -20 10 -30 30 -30h70c20 0 30 10 30 30v45h85v-45
c0 -60 -35 -95 -100 -95z" />
    <glyph glyph-name="Gcircumflex" unicode="&#x11c;" horiz-adv-x="675" 
d="M480 310h-150v80h260v-390h-340c-111 0 -170 59 -170 150v400c0 91 59 150 170 150h305v-45l-30 -35h-265c-40 0 -70 -30 -70 -70v-400c0 -40 30 -70 70 -70h220v230zM502 760h-95l-80 90l-80 -90h-95l130 150h90z" />
    <glyph glyph-name="Gcommaaccent" unicode="&#x122;" horiz-adv-x="675" 
d="M480 310h-150v80h260v-390h-340c-111 0 -170 59 -170 150v400c0 91 59 150 170 150h305v-45l-30 -35h-265c-40 0 -70 -30 -70 -70v-400c0 -40 30 -70 70 -70h220v230zM395 -144l-40 -110h-55v195h95v-85z" />
    <glyph glyph-name="Gdotaccent" unicode="&#x120;" horiz-adv-x="675" 
d="M480 310h-150v80h260v-390h-340c-111 0 -170 59 -170 150v400c0 91 59 150 170 150h305v-45l-30 -35h-265c-40 0 -70 -30 -70 -70v-400c0 -40 30 -70 70 -70h220v230zM390 880v-105h-105v105h105z" />
    <glyph glyph-name="Hbar" unicode="&#x126;" horiz-adv-x="690" 
d="M200 0h-110v490h-60v70h60v140h110v-140h290v140h110v-140h60v-70h-60v-490h-110v300h-290v-300zM200 380h290v110h-290v-110z" />
    <glyph glyph-name="Hcircumflex" unicode="&#x124;" horiz-adv-x="690" 
d="M200 0h-110v700h110v-310h290v310h110v-700h-110v310h-290v-310zM520 770h-95l-80 90l-80 -90h-95l130 150h90z" />
    <glyph glyph-name="Iacute" unicode="&#xcd;" horiz-adv-x="290" 
d="M200 0h-110v700h110v-700zM180 930h120l-115 -160h-95z" />
    <glyph glyph-name="Ibreve" unicode="&#x12c;" horiz-adv-x="290" 
d="M200 0h-110v700h110v-700zM196 770h-100c-65 0 -100 35 -100 95v45h85v-45c0 -20 10 -30 30 -30h70c20 0 30 10 30 30v45h85v-45c0 -60 -35 -95 -100 -95z" />
    <glyph glyph-name="Icircumflex" unicode="&#xce;" horiz-adv-x="290" 
d="M200 0h-110v700h110v-700zM321 770h-95l-80 90l-80 -90h-95l130 150h90z" />
    <glyph glyph-name="Idieresis" unicode="&#xcf;" horiz-adv-x="295" 
d="M202 0h-110v700h110v-700zM101 870v-105h-105v105h105zM301 870v-105h-105v105h105z" />
    <glyph glyph-name="Idotaccent" unicode="&#x130;" horiz-adv-x="290" 
d="M200 0h-110v700h110v-700zM197 870v-105h-105v105h105z" />
    <glyph glyph-name="Igrave" unicode="&#xcc;" horiz-adv-x="290" 
d="M200 0h-110v700h110v-700zM-9 930h120l90 -160h-95z" />
    <glyph glyph-name="Imacron" unicode="&#x12a;" horiz-adv-x="290" 
d="M200 0h-110v700h110v-700zM296 860v-70h-300v70h300z" />
    <glyph glyph-name="Iogonek" unicode="&#x12e;" horiz-adv-x="290" 
d="M115 0h-25v700h110v-720c-18 -7 -34 -16 -48 -25c-24 -16 -47 -39 -47 -70c0 -20 15 -35 35 -35h80v-60h-80c-91 0 -125 35 -125 95c0 37 25 67 50 86c15 11 31 21 50 29z" />
    <glyph glyph-name="Itilde" unicode="&#x128;" horiz-adv-x="290" 
d="M200 0h-110v700h110v-700zM216 905h80v-70c0 -40 -30 -70 -70 -70h-25c-11 0 -21 5 -30 10c-5 3 -10 6 -15 10l-39 35c-3 2 -6 4 -9 7c-5 4 -12 8 -16 8c-15 0 -16 -9 -16 -20v-45h-80v70c0 40 30 70 70 70h25c11 0 21 -5 30 -10c5 -3 10 -6 15 -10l40 -35l9 -8
c6 -5 11 -7 16 -7c15 0 15 9 15 20v45z" />
    <glyph glyph-name="IJ" unicode="&#x132;" horiz-adv-x="815" 
d="M200 0h-110v700h110v-700zM300 70h245c40 0 70 30 70 70v560h110v-560c0 -91 -59 -150 -170 -150h-255v80z" />
    <glyph glyph-name="Jcircumflex" unicode="&#x134;" horiz-adv-x="525" 
d="M10 70h245c40 0 70 30 70 70v560h110v-560c0 -91 -59 -150 -170 -150h-255v80zM557 760h-95l-80 90l-80 -90h-95l130 150h90z" />
    <glyph glyph-name="Kcommaaccent" unicode="&#x136;" horiz-adv-x="655" 
d="M200 0h-110v700h110v-305h135l155 305h105v-50l-170 -295l190 -305v-50h-105l-175 315h-135v-315zM385 -105l-40 -110h-55v195h95v-85z" />
    <glyph glyph-name="Lacute" unicode="&#x139;" horiz-adv-x="555" 
d="M200 80h345v-80h-455v700h110v-620zM192 930h120l-115 -160h-95z" />
    <glyph glyph-name="Lcaron" unicode="&#x13d;" horiz-adv-x="555" 
d="M200 80h345v-80h-455v700h110v-620zM395 615l-50 -135h-55v220h105v-85z" />
    <glyph glyph-name="Lcommaaccent" unicode="&#x13b;" horiz-adv-x="555" 
d="M200 80h345v-80h-455v700h110v-620zM375 -144l-40 -110h-55v195h95v-85z" />
    <glyph glyph-name="Ldot" unicode="&#x13f;" horiz-adv-x="555" 
d="M200 80h345v-80h-455v700h110v-620zM405 450v-120h-105v120h105z" />
    <glyph glyph-name="Lslash" unicode="&#x141;" horiz-adv-x="555" 
d="M20 340l70 37v323h110v-264l100 54v-95l-100 -54v-261h345v-80h-455v282l-70 -37v95z" />
    <glyph glyph-name="Nacute" unicode="&#x143;" horiz-adv-x="690" 
d="M90 700h120l290 -540h5l-15 170v370h110v-700h-120l-290 540h-5l15 -170v-370h-110v700zM370 930h120l-115 -160h-95z" />
    <glyph glyph-name="Ncaron" unicode="&#x147;" horiz-adv-x="690" 
d="M90 700h120l290 -540h5l-15 170v370h110v-700h-120l-290 540h-5l15 -170v-370h-110v700zM415 900h95l-130 -150h-90l-130 150h95l80 -90z" />
    <glyph glyph-name="Ncommaaccent" unicode="&#x145;" horiz-adv-x="690" 
d="M90 700h120l290 -540h5l-15 170v370h110v-700h-120l-290 540h-5l15 -170v-370h-110v700zM392 -115l-40 -110h-55v195h95v-85z" />
    <glyph glyph-name="Ntilde" unicode="&#xd1;" horiz-adv-x="690" 
d="M90 700h120l290 -540h5l-15 170v370h110v-700h-120l-290 540h-5l15 -170v-370h-110v700zM415 905h80v-70c0 -40 -30 -70 -70 -70h-25c-11 0 -21 5 -30 10c-5 3 -10 6 -15 10l-39 35c-3 2 -6 4 -9 7c-5 4 -12 8 -16 8c-15 0 -16 -9 -16 -20v-45h-80v70c0 40 30 70 70 70
h25c11 0 21 -5 30 -10c5 -3 10 -6 15 -10l40 -35l9 -8c6 -5 11 -7 16 -7c15 0 15 9 15 20v45z" />
    <glyph glyph-name="Oacute" unicode="&#xd3;" horiz-adv-x="680" 
d="M190 560v-420c0 -40 30 -70 70 -70h160c40 0 70 30 70 70v420c0 40 -30 70 -70 70h-160c-40 0 -70 -30 -70 -70zM80 140v420c0 91 59 150 170 150h180c111 0 170 -59 170 -150v-420c0 -91 -59 -150 -170 -150h-180c-111 0 -170 59 -170 150zM375 930h120l-115 -160h-95z
" />
    <glyph glyph-name="Obreve" unicode="&#x14e;" horiz-adv-x="680" 
d="M190 560v-420c0 -40 30 -70 70 -70h160c40 0 70 30 70 70v420c0 40 -30 70 -70 70h-160c-40 0 -70 -30 -70 -70zM80 140v420c0 91 59 150 170 150h180c111 0 170 -59 170 -150v-420c0 -91 -59 -150 -170 -150h-180c-111 0 -170 59 -170 150zM390 770h-100
c-65 0 -100 35 -100 95v45h85v-45c0 -20 10 -30 30 -30h70c20 0 30 10 30 30v45h85v-45c0 -60 -35 -95 -100 -95z" />
    <glyph glyph-name="Ocircumflex" unicode="&#xd4;" horiz-adv-x="680" 
d="M190 560v-420c0 -40 30 -70 70 -70h160c40 0 70 30 70 70v420c0 40 -30 70 -70 70h-160c-40 0 -70 -30 -70 -70zM80 140v420c0 91 59 150 170 150h180c111 0 170 -59 170 -150v-420c0 -91 -59 -150 -170 -150h-180c-111 0 -170 59 -170 150zM515 770h-95l-80 90l-80 -90
h-95l130 150h90z" />
    <glyph glyph-name="Odieresis" unicode="&#xd6;" horiz-adv-x="680" 
d="M190 560v-420c0 -40 30 -70 70 -70h160c40 0 70 30 70 70v420c0 40 -30 70 -70 70h-160c-40 0 -70 -30 -70 -70zM80 140v420c0 91 59 150 170 150h180c111 0 170 -59 170 -150v-420c0 -91 -59 -150 -170 -150h-180c-111 0 -170 59 -170 150zM292 880v-105h-105v105h105z
M492 880v-105h-105v105h105z" />
    <glyph glyph-name="Ograve" unicode="&#xd2;" horiz-adv-x="680" 
d="M190 560v-420c0 -40 30 -70 70 -70h160c40 0 70 30 70 70v420c0 40 -30 70 -70 70h-160c-40 0 -70 -30 -70 -70zM80 140v420c0 91 59 150 170 150h180c111 0 170 -59 170 -150v-420c0 -91 -59 -150 -170 -150h-180c-111 0 -170 59 -170 150zM195 930h120l90 -160h-95z
" />
    <glyph glyph-name="Ohungarumlaut" unicode="&#x150;" horiz-adv-x="680" 
d="M190 560v-420c0 -40 30 -70 70 -70h160c40 0 70 30 70 70v420c0 40 -30 70 -70 70h-160c-40 0 -70 -30 -70 -70zM80 140v420c0 91 59 150 170 150h180c111 0 170 -59 170 -150v-420c0 -91 -59 -150 -170 -150h-180c-111 0 -170 59 -170 150zM282 930h105l-105 -160h-90z
M462 930h105l-105 -160h-90z" />
    <glyph glyph-name="Omacron" unicode="&#x14c;" horiz-adv-x="680" 
d="M190 560v-420c0 -40 30 -70 70 -70h160c40 0 70 30 70 70v420c0 40 -30 70 -70 70h-160c-40 0 -70 -30 -70 -70zM80 140v420c0 91 59 150 170 150h180c111 0 170 -59 170 -150v-420c0 -91 -59 -150 -170 -150h-180c-111 0 -170 59 -170 150zM490 860v-70h-300v70h300z
" />
    <glyph glyph-name="Oslash" unicode="&#xd8;" horiz-adv-x="680" 
d="M565 710l-17 -35c35 -27 52 -66 52 -115v-420c0 -91 -59 -150 -170 -150h-180c-7 0 -14 1 -21 1l-19 -41h-95v40l16 35c-34 27 -51 65 -51 115v420c0 91 59 150 170 150h180c7 0 14 -1 21 -1l19 41h95v-40zM190 560v-430l234 500h-164c-40 0 -70 -30 -70 -70zM256 70h164
c40 0 70 30 70 70v429z" />
    <glyph glyph-name="Oslashacute" unicode="&#x1fe;" horiz-adv-x="680" 
d="M565 710l-17 -35c35 -27 52 -66 52 -115v-420c0 -91 -59 -150 -170 -150h-180c-7 0 -14 1 -21 1l-19 -41h-95v40l16 35c-34 27 -51 65 -51 115v420c0 91 59 150 170 150h180c7 0 14 -1 21 -1l19 41h95v-40zM190 560v-430l234 500h-164c-40 0 -70 -30 -70 -70zM256 70h164
c40 0 70 30 70 70v429zM385 932h120l-115 -160h-95z" />
    <glyph glyph-name="Otilde" unicode="&#xd5;" horiz-adv-x="680" 
d="M190 560v-420c0 -40 30 -70 70 -70h160c40 0 70 30 70 70v420c0 40 -30 70 -70 70h-160c-40 0 -70 -30 -70 -70zM80 140v420c0 91 59 150 170 150h180c111 0 170 -59 170 -150v-420c0 -91 -59 -150 -170 -150h-180c-111 0 -170 59 -170 150zM410 915h80v-70
c0 -40 -30 -70 -70 -70h-25c-11 0 -21 5 -30 10c-5 3 -10 6 -15 10l-39 35c-3 2 -6 4 -9 7c-5 4 -12 8 -16 8c-15 0 -16 -9 -16 -20v-45h-80v70c0 40 30 70 70 70h25c11 0 21 -5 30 -10c5 -3 10 -6 15 -10l40 -35l9 -8c6 -5 11 -7 16 -7c15 0 15 9 15 20v45z" />
    <glyph glyph-name="OE" unicode="&#x152;" horiz-adv-x="960" 
d="M925 700v-45l-30 -35h-315v-230h255v-80h-255v-230h345v-80h-455v700h455zM80 150v400c0 91 59 150 170 150h220v-80h-210c-40 0 -70 -30 -70 -70v-400c0 -40 30 -70 70 -70h210v-80h-220c-111 0 -170 59 -170 150z" />
    <glyph glyph-name="Racute" unicode="&#x154;" horiz-adv-x="665" 
d="M200 0h-110v700h330c111 0 170 -59 170 -150v-130c0 -60 -35 -95 -70 -115c-21 -12 -44 -20 -70 -25l165 -230v-50h-105l-170 270h-140v-270zM200 620v-270h210c40 0 70 30 70 70v130c0 40 -30 70 -70 70h-210zM347 930h120l-115 -160h-95z" />
    <glyph glyph-name="Rcaron" unicode="&#x158;" horiz-adv-x="665" 
d="M200 0h-110v700h330c111 0 170 -59 170 -150v-130c0 -60 -35 -95 -70 -115c-21 -12 -44 -20 -70 -25l165 -230v-50h-105l-170 270h-140v-270zM200 620v-270h210c40 0 70 30 70 70v130c0 40 -30 70 -70 70h-210zM392 920h95l-130 -150h-90l-130 150h95l80 -90z" />
    <glyph glyph-name="Rcommaaccent" unicode="&#x156;" horiz-adv-x="665" 
d="M200 0h-110v700h330c111 0 170 -59 170 -150v-130c0 -60 -35 -95 -70 -115c-21 -12 -44 -20 -70 -25l165 -230v-50h-105l-170 270h-140v-270zM200 620v-270h210c40 0 70 30 70 70v130c0 40 -30 70 -70 70h-210zM380 -115l-40 -110h-55v195h95v-85z" />
    <glyph glyph-name="Sacute" unicode="&#x15a;" horiz-adv-x="590" 
d="M370 290l-190 45c-80 19 -130 70 -130 155v60c0 91 59 150 170 150h290v-45l-30 -35h-250c-40 0 -70 -30 -70 -70v-60c0 -35 25 -62 60 -70l190 -45c80 -19 130 -70 130 -155v-70c0 -91 -59 -150 -170 -150h-320v80h310c40 0 70 30 70 70v70c0 35 -25 62 -60 70zM310 930
h120l-115 -160h-95z" />
    <glyph glyph-name="Scaron" unicode="&#x160;" horiz-adv-x="590" 
d="M370 290l-190 45c-80 19 -130 70 -130 155v60c0 91 59 150 170 150h290v-45l-30 -35h-250c-40 0 -70 -30 -70 -70v-60c0 -35 25 -62 60 -70l190 -45c80 -19 130 -70 130 -155v-70c0 -91 -59 -150 -170 -150h-320v80h310c40 0 70 30 70 70v70c0 35 -25 62 -60 70zM365 910
h95l-130 -150h-90l-130 150h95l80 -90z" />
    <glyph glyph-name="Scedilla" unicode="&#x15e;" horiz-adv-x="590" 
d="M370 290l-190 45c-80 19 -130 70 -130 155v60c0 91 59 150 170 150h290v-45l-30 -35h-250c-40 0 -70 -30 -70 -70v-60c0 -35 25 -62 60 -70l190 -45c80 -19 130 -70 130 -155v-70c0 -91 -59 -150 -170 -150h-78v-45h40c56 0 95 -39 95 -90v-15c0 -51 -39 -90 -95 -90
h-130v60h105c15 0 30 15 30 30v15c0 15 -15 30 -30 30h-80v105h-177v80h310c40 0 70 30 70 70v70c0 35 -25 62 -60 70z" />
    <glyph glyph-name="Scircumflex" unicode="&#x15c;" horiz-adv-x="590" 
d="M370 290l-190 45c-80 19 -130 70 -130 155v60c0 91 59 150 170 150h290v-45l-30 -35h-250c-40 0 -70 -30 -70 -70v-60c0 -35 25 -62 60 -70l190 -45c80 -19 130 -70 130 -155v-70c0 -91 -59 -150 -170 -150h-320v80h310c40 0 70 30 70 70v70c0 35 -25 62 -60 70zM470 770
h-95l-80 90l-80 -90h-95l130 150h90z" />
    <glyph glyph-name="Scommaaccent" unicode="&#x218;" horiz-adv-x="590" 
d="M370 290l-190 45c-80 19 -130 70 -130 155v60c0 91 59 150 170 150h290v-45l-30 -35h-250c-40 0 -70 -30 -70 -70v-60c0 -35 25 -62 60 -70l190 -45c80 -19 130 -70 130 -155v-70c0 -91 -59 -150 -170 -150h-320v80h310c40 0 70 30 70 70v70c0 35 -25 62 -60 70z
M340 -135l-40 -110h-55v195h95v-85z" />
    <glyph glyph-name="Tbar" unicode="&#x166;" horiz-adv-x="560" 
d="M15 620v80h530v-45l-30 -35h-180v-130h200v-70h-200v-420h-110v420h-200v70h200v130h-210z" />
    <glyph glyph-name="Tcaron" unicode="&#x164;" horiz-adv-x="560" 
d="M15 620v80h530v-45l-30 -35h-180v-620h-110v620h-210zM360 910h95l-130 -150h-90l-130 150h95l80 -90z" />
    <glyph glyph-name="Tcommaaccent" unicode="&#x162;" horiz-adv-x="560" 
d="M15 620v80h530v-45l-30 -35h-180v-620h-110v620h-210zM327 -164l-40 -110h-55v195h95v-85z" />
    <glyph glyph-name="Uacute" unicode="&#xda;" horiz-adv-x="710" 
d="M510 140v560h110v-560c0 -91 -59 -150 -170 -150h-190c-111 0 -170 59 -170 150v560h110v-560c0 -40 30 -70 70 -70h170c40 0 70 30 70 70zM370 910h120l-115 -160h-95z" />
    <glyph glyph-name="Ubreve" unicode="&#x16c;" horiz-adv-x="710" 
d="M510 140v560h110v-560c0 -91 -59 -150 -170 -150h-190c-111 0 -170 59 -170 150v560h110v-560c0 -40 30 -70 70 -70h170c40 0 70 30 70 70zM395 750h-100c-65 0 -100 35 -100 95v45h85v-45c0 -20 10 -30 30 -30h70c20 0 30 10 30 30v45h85v-45c0 -60 -35 -95 -100 -95z
" />
    <glyph glyph-name="Ucircumflex" unicode="&#xdb;" horiz-adv-x="710" 
d="M510 140v560h110v-560c0 -91 -59 -150 -170 -150h-190c-111 0 -170 59 -170 150v560h110v-560c0 -40 30 -70 70 -70h170c40 0 70 30 70 70zM530 760h-95l-80 90l-80 -90h-95l130 150h90z" />
    <glyph glyph-name="Udieresis" unicode="&#xdc;" horiz-adv-x="710" 
d="M510 140v560h110v-560c0 -91 -59 -150 -170 -150h-190c-111 0 -170 59 -170 150v560h110v-560c0 -40 30 -70 70 -70h170c40 0 70 30 70 70zM307 870v-105h-105v105h105zM507 870v-105h-105v105h105z" />
    <glyph glyph-name="Ugrave" unicode="&#xd9;" horiz-adv-x="710" 
d="M510 140v560h110v-560c0 -91 -59 -150 -170 -150h-190c-111 0 -170 59 -170 150v560h110v-560c0 -40 30 -70 70 -70h170c40 0 70 30 70 70zM210 920h120l90 -160h-95z" />
    <glyph glyph-name="Uhungarumlaut" unicode="&#x170;" horiz-adv-x="710" 
d="M510 140v560h110v-560c0 -91 -59 -150 -170 -150h-190c-111 0 -170 59 -170 150v560h110v-560c0 -40 30 -70 70 -70h170c40 0 70 30 70 70zM287 930h105l-105 -160h-90zM467 930h105l-105 -160h-90z" />
    <glyph glyph-name="Umacron" unicode="&#x16a;" horiz-adv-x="710" 
d="M510 140v560h110v-560c0 -91 -59 -150 -170 -150h-190c-111 0 -170 59 -170 150v560h110v-560c0 -40 30 -70 70 -70h170c40 0 70 30 70 70zM505 850v-70h-300v70h300z" />
    <glyph glyph-name="Uogonek" unicode="&#x172;" horiz-adv-x="710" 
d="M510 140v560h110v-560c0 -91 -59 -150 -170 -150h-10c-20 -9 -38 -19 -53 -30c-27 -19 -52 -44 -52 -75c0 -20 15 -35 35 -35h80v-60h-80c-91 0 -125 35 -125 95c0 53 51 90 79 105h-64c-111 0 -170 59 -170 150v560h110v-560c0 -40 30 -70 70 -70h170c40 0 70 30 70 70z
" />
    <glyph glyph-name="Uring" unicode="&#x16e;" horiz-adv-x="710" 
d="M510 140v560h110v-560c0 -91 -59 -150 -170 -150h-190c-111 0 -170 59 -170 150v560h110v-560c0 -40 30 -70 70 -70h170c40 0 70 30 70 70zM475 860v-50c0 -45 -34 -80 -85 -80h-70c-51 0 -85 35 -85 80v50c0 40 34 80 85 80h70c51 0 85 -35 85 -80zM345 785h20
c17 0 25 8 25 25v50c0 17 -8 25 -25 25h-20c-17 0 -25 -8 -25 -25v-50c0 -17 8 -25 25 -25z" />
    <glyph glyph-name="Utilde" unicode="&#x168;" horiz-adv-x="710" 
d="M510 140v560h110v-560c0 -91 -59 -150 -170 -150h-190c-111 0 -170 59 -170 150v560h110v-560c0 -40 30 -70 70 -70h170c40 0 70 30 70 70zM425 895h80v-70c0 -40 -30 -70 -70 -70h-25c-11 0 -21 5 -30 10c-5 3 -10 6 -15 10l-39 35c-3 2 -6 4 -9 7c-5 4 -12 8 -16 8
c-15 0 -16 -9 -16 -20v-45h-80v70c0 40 30 70 70 70h25c11 0 21 -5 30 -10c5 -3 10 -6 15 -10l40 -35l9 -8c6 -5 11 -7 16 -7c15 0 15 9 15 20v45z" />
    <glyph glyph-name="Wacute" unicode="&#x1e82;" horiz-adv-x="955" 
d="M480 485h-5l-145 -485h-150l-140 650v50h105l115 -590h5l140 480h145l140 -480h5l115 590h105v-50l-140 -650h-150zM512 850h120l-115 -160h-95z" />
    <glyph glyph-name="Wcircumflex" unicode="&#x174;" horiz-adv-x="955" 
d="M480 485h-5l-145 -485h-150l-140 650v50h105l115 -590h5l140 480h145l140 -480h5l115 590h105v-50l-140 -650h-150zM652 700h-95l-80 90l-80 -90h-95l130 150h90z" />
    <glyph glyph-name="Wdieresis" unicode="&#x1e84;" horiz-adv-x="955" 
d="M480 485h-5l-145 -485h-150l-140 650v50h105l115 -590h5l140 480h145l140 -480h5l115 590h105v-50l-140 -650h-150zM430 830v-105h-105v105h105zM630 830v-105h-105v105h105z" />
    <glyph glyph-name="Wgrave" unicode="&#x1e80;" horiz-adv-x="955" 
d="M480 485h-5l-145 -485h-150l-140 650v50h105l115 -590h5l140 480h145l140 -480h5l115 590h105v-50l-140 -650h-150zM322 850h120l90 -160h-95z" />
    <glyph glyph-name="Yacute" unicode="&#xdd;" horiz-adv-x="600" 
d="M20 700h105l170 -375h10l170 375h105v-50l-225 -435v-215h-110v215l-225 435v50zM325 900h120l-115 -160h-95z" />
    <glyph glyph-name="Ycircumflex" unicode="&#x176;" horiz-adv-x="600" 
d="M20 700h105l170 -375h10l170 375h105v-50l-225 -435v-215h-110v215l-225 435v50zM475 770h-95l-80 90l-80 -90h-95l130 150h90z" />
    <glyph glyph-name="Ydieresis" unicode="&#x178;" horiz-adv-x="600" 
d="M20 700h105l170 -375h10l170 375h105v-50l-225 -435v-215h-110v215l-225 435v50zM252 870v-105h-105v105h105zM452 870v-105h-105v105h105z" />
    <glyph glyph-name="Ygrave" unicode="&#x1ef2;" horiz-adv-x="600" 
d="M20 700h105l170 -375h10l170 375h105v-50l-225 -435v-215h-110v215l-225 435v50zM155 910h120l90 -160h-95z" />
    <glyph glyph-name="Zacute" unicode="&#x179;" horiz-adv-x="585" 
d="M175 80h370v-80h-505v75l360 540v5h-330l-30 35v45h495v-75l-360 -540v-5zM307 930h120l-115 -160h-95z" />
    <glyph glyph-name="Zcaron" unicode="&#x17d;" horiz-adv-x="585" 
d="M175 80h370v-80h-505v75l360 540v5h-330l-30 35v45h495v-75l-360 -540v-5zM372 910h95l-130 -150h-90l-130 150h95l80 -90z" />
    <glyph glyph-name="Zdotaccent" unicode="&#x17b;" horiz-adv-x="585" 
d="M175 80h370v-80h-505v75l360 540v5h-330l-30 35v45h495v-75l-360 -540v-5zM345 880v-105h-105v105h105z" />
    <glyph glyph-name="aacute" unicode="&#xe1;" horiz-adv-x="575" 
d="M290 -10h-90c-95 0 -155 61 -155 130v55c0 69 60 130 155 130h195v95c0 35 -25 60 -60 60h-240v70h250c95 0 155 -61 155 -130v-400h-65l-20 65h-5c-6 -14 -15 -27 -26 -38c-19 -19 -49 -37 -94 -37zM210 60h80c40 0 66 21 82 42c9 12 17 26 23 43v90h-185
c-35 0 -60 -25 -60 -60v-55c0 -35 25 -60 60 -60zM302 770h120l-115 -160h-95z" />
    <glyph glyph-name="abreve" unicode="&#x103;" horiz-adv-x="575" 
d="M290 -10h-90c-95 0 -155 61 -155 130v55c0 69 60 130 155 130h195v95c0 35 -25 60 -60 60h-240v70h250c95 0 155 -61 155 -130v-400h-65l-20 65h-5c-6 -14 -15 -27 -26 -38c-19 -19 -49 -37 -94 -37zM210 60h80c40 0 66 21 82 42c9 12 17 26 23 43v90h-185
c-35 0 -60 -25 -60 -60v-55c0 -35 25 -60 60 -60zM337 600h-100c-65 0 -100 35 -100 95v45h85v-45c0 -20 10 -30 30 -30h70c20 0 30 10 30 30v45h85v-45c0 -60 -35 -95 -100 -95z" />
    <glyph glyph-name="acircumflex" unicode="&#xe2;" horiz-adv-x="575" 
d="M290 -10h-90c-95 0 -155 61 -155 130v55c0 69 60 130 155 130h195v95c0 35 -25 60 -60 60h-240v70h250c95 0 155 -61 155 -130v-400h-65l-20 65h-5c-6 -14 -15 -27 -26 -38c-19 -19 -49 -37 -94 -37zM210 60h80c40 0 66 21 82 42c9 12 17 26 23 43v90h-185
c-35 0 -60 -25 -60 -60v-55c0 -35 25 -60 60 -60zM472 600h-95l-80 90l-80 -90h-95l130 150h90z" />
    <glyph glyph-name="adieresis" unicode="&#xe4;" horiz-adv-x="575" 
d="M290 -10h-90c-95 0 -155 61 -155 130v55c0 69 60 130 155 130h195v95c0 35 -25 60 -60 60h-240v70h250c95 0 155 -61 155 -130v-400h-65l-20 65h-5c-6 -14 -15 -27 -26 -38c-19 -19 -49 -37 -94 -37zM210 60h80c40 0 66 21 82 42c9 12 17 26 23 43v90h-185
c-35 0 -60 -25 -60 -60v-55c0 -35 25 -60 60 -60zM250 710v-105h-105v105h105zM450 710v-105h-105v105h105z" />
    <glyph glyph-name="agrave" unicode="&#xe0;" horiz-adv-x="575" 
d="M290 -10h-90c-95 0 -155 61 -155 130v55c0 69 60 130 155 130h195v95c0 35 -25 60 -60 60h-240v70h250c95 0 155 -61 155 -130v-400h-65l-20 65h-5c-6 -14 -15 -27 -26 -38c-19 -19 -49 -37 -94 -37zM210 60h80c40 0 66 21 82 42c9 12 17 26 23 43v90h-185
c-35 0 -60 -25 -60 -60v-55c0 -35 25 -60 60 -60zM152 770h120l90 -160h-95z" />
    <glyph glyph-name="amacron" unicode="&#x101;" horiz-adv-x="575" 
d="M290 -10h-90c-95 0 -155 61 -155 130v55c0 69 60 130 155 130h195v95c0 35 -25 60 -60 60h-240v70h250c95 0 155 -61 155 -130v-400h-65l-20 65h-5c-6 -14 -15 -27 -26 -38c-19 -19 -49 -37 -94 -37zM210 60h80c40 0 66 21 82 42c9 12 17 26 23 43v90h-185
c-35 0 -60 -25 -60 -60v-55c0 -35 25 -60 60 -60zM447 691v-70h-300v70h300z" />
    <glyph glyph-name="aogonek" unicode="&#x105;" horiz-adv-x="575" 
d="M290 -10h-90c-95 0 -155 61 -155 130v55c0 69 60 130 155 130h195v95c0 35 -25 60 -60 60h-240v70h250c95 0 155 -61 155 -130v-420c-18 -7 -34 -16 -48 -25c-24 -16 -47 -39 -47 -70c0 -20 15 -35 35 -35h80v-60h-80c-91 0 -125 35 -125 95c0 37 25 67 50 86
c15 11 31 21 50 29h20l-20 65h-5c-6 -14 -15 -27 -26 -38c-19 -19 -49 -37 -94 -37zM210 60h80c40 0 66 21 82 42c9 12 17 26 23 43v90h-185c-35 0 -60 -25 -60 -60v-55c0 -35 25 -60 60 -60z" />
    <glyph glyph-name="aring" unicode="&#xe5;" horiz-adv-x="575" 
d="M290 -10h-90c-95 0 -155 61 -155 130v55c0 69 60 130 155 130h195v95c0 35 -25 60 -60 60h-240v70h250c95 0 155 -61 155 -130v-400h-65l-20 65h-5c-6 -14 -15 -27 -26 -38c-19 -19 -49 -37 -94 -37zM210 60h80c40 0 66 21 82 42c9 12 17 26 23 43v90h-185
c-35 0 -60 -25 -60 -60v-55c0 -35 25 -60 60 -60zM407 710v-50c0 -45 -34 -80 -85 -80h-70c-51 0 -85 35 -85 80v50c0 40 34 80 85 80h70c51 0 85 -35 85 -80zM277 635h20c17 0 25 8 25 25v50c0 17 -8 25 -25 25h-20c-17 0 -25 -8 -25 -25v-50c0 -17 8 -25 25 -25z" />
    <glyph glyph-name="atilde" unicode="&#xe3;" horiz-adv-x="575" 
d="M290 -10h-90c-95 0 -155 61 -155 130v55c0 69 60 130 155 130h195v95c0 35 -25 60 -60 60h-240v70h250c95 0 155 -61 155 -130v-400h-65l-20 65h-5c-6 -14 -15 -27 -26 -38c-19 -19 -49 -37 -94 -37zM210 60h80c40 0 66 21 82 42c9 12 17 26 23 43v90h-185
c-35 0 -60 -25 -60 -60v-55c0 -35 25 -60 60 -60zM357 745h80v-70c0 -40 -30 -70 -70 -70h-25c-11 0 -21 5 -30 10c-5 3 -10 6 -15 10l-39 35c-3 2 -6 4 -9 7c-5 4 -12 8 -16 8c-15 0 -16 -9 -16 -20v-45h-80v70c0 40 30 70 70 70h25c11 0 21 -5 30 -10c5 -3 10 -6 15 -10
l40 -35l9 -8c6 -5 11 -7 16 -7c15 0 15 9 15 20v45z" />
    <glyph glyph-name="ae" unicode="&#xe6;" horiz-adv-x="900" 
d="M835 410v-185h-335v-95c0 -35 25 -60 60 -60h255v-70h-265c-43 0 -73 16 -92 32c-11 9 -21 20 -28 33c-8 -14 -18 -27 -31 -38c-23 -19 -57 -37 -109 -37h-90c-95 0 -155 61 -155 130v55c0 69 60 130 155 130h195v95c0 35 -25 60 -60 60h-240v70h250c35 0 60 -13 76 -25
c9 -7 17 -16 24 -25c6 11 14 21 24 30c17 15 42 30 81 30h130c95 0 155 -61 155 -130zM210 60h80c76 0 102 76 105 84v91h-185c-35 0 -60 -25 -60 -60v-55c0 -35 25 -60 60 -60zM500 410v-115h230v115c0 35 -25 60 -60 60h-110c-35 0 -60 -25 -60 -60z" />
    <glyph glyph-name="aeacute" unicode="&#x1fd;" horiz-adv-x="900" 
d="M835 410v-185h-335v-95c0 -35 25 -60 60 -60h255v-70h-265c-43 0 -73 16 -92 32c-11 9 -21 20 -28 33c-8 -14 -18 -27 -31 -38c-23 -19 -57 -37 -109 -37h-90c-95 0 -155 61 -155 130v55c0 69 60 130 155 130h195v95c0 35 -25 60 -60 60h-240v70h250c35 0 60 -13 76 -25
c9 -7 17 -16 24 -25c6 11 14 21 24 30c17 15 42 30 81 30h130c95 0 155 -61 155 -130zM210 60h80c76 0 102 76 105 84v91h-185c-35 0 -60 -25 -60 -60v-55c0 -35 25 -60 60 -60zM500 410v-115h230v115c0 35 -25 60 -60 60h-110c-35 0 -60 -25 -60 -60zM485 770h120
l-115 -160h-95z" />
    <glyph glyph-name="cacute" unicode="&#x107;" horiz-adv-x="520" 
d="M65 130v270c0 69 60 130 155 130h260v-35l-30 -35h-220c-35 0 -60 -25 -60 -60v-270c0 -35 25 -60 60 -60h250v-70h-260c-95 0 -155 61 -155 130zM315 770h120l-115 -160h-95z" />
    <glyph glyph-name="ccaron" unicode="&#x10d;" horiz-adv-x="520" 
d="M65 130v270c0 69 60 130 155 130h260v-35l-30 -35h-220c-35 0 -60 -25 -60 -60v-270c0 -35 25 -60 60 -60h250v-70h-260c-95 0 -155 61 -155 130zM360 750h95l-130 -150h-90l-130 150h95l80 -90z" />
    <glyph glyph-name="ccedilla" unicode="&#xe7;" horiz-adv-x="520" 
d="M65 130v270c0 69 60 130 155 130h260v-35l-30 -35h-220c-35 0 -60 -25 -60 -60v-270c0 -35 25 -60 60 -60h250v-70h-193v-45h40c56 0 95 -39 95 -90v-15c0 -51 -39 -90 -95 -90h-130v60h105c15 0 30 15 30 30v15c0 15 -15 30 -30 30h-80v105h-2c-95 0 -155 61 -155 130z
" />
    <glyph glyph-name="ccircumflex" unicode="&#x109;" horiz-adv-x="520" 
d="M65 130v270c0 69 60 130 155 130h260v-35l-30 -35h-220c-35 0 -60 -25 -60 -60v-270c0 -35 25 -60 60 -60h250v-70h-260c-95 0 -155 61 -155 130zM455 610h-95l-80 90l-80 -90h-95l130 150h90z" />
    <glyph glyph-name="cdotaccent" unicode="&#x10b;" horiz-adv-x="520" 
d="M65 130v270c0 69 60 130 155 130h260v-35l-30 -35h-220c-35 0 -60 -25 -60 -60v-270c0 -35 25 -60 60 -60h250v-70h-260c-95 0 -155 61 -155 130zM332 720v-105h-105v105h105z" />
    <glyph glyph-name="dcaron" unicode="&#x10f;" horiz-adv-x="745" 
d="M310 -10h-90c-95 0 -155 61 -155 130v280c0 69 60 130 155 130h195v170h105v-700h-65l-20 65h-5c-6 -14 -15 -27 -26 -38c-19 -19 -49 -37 -94 -37zM230 60h80c40 0 66 21 82 42c9 12 17 26 23 43v315h-185c-35 0 -60 -25 -60 -60v-280c0 -35 25 -60 60 -60zM715 615
l-50 -135h-55v220h105v-85z" />
    <glyph glyph-name="dcroat" unicode="&#x111;" horiz-adv-x="600" 
d="M310 -10h-90c-95 0 -155 61 -155 130v200c0 69 60 130 155 130h195v80h-185v70h185v100h105v-100h60v-70h-60v-530h-65l-20 65h-5c-6 -14 -15 -27 -26 -38c-19 -19 -49 -37 -94 -37zM230 60h80c40 0 66 21 82 42c9 12 17 26 23 43v235h-185c-35 0 -60 -25 -60 -60v-200
c0 -35 25 -60 60 -60z" />
    <glyph glyph-name="eacute" unicode="&#xe9;" horiz-adv-x="570" 
d="M505 410v-185h-335v-95c0 -35 25 -60 60 -60h255v-70h-265c-95 0 -155 61 -155 130v280c0 69 60 130 155 130h130c95 0 155 -61 155 -130zM170 410v-115h230v115c0 35 -25 60 -60 60h-110c-35 0 -60 -25 -60 -60zM310 770h120l-115 -160h-95z" />
    <glyph glyph-name="ebreve" unicode="&#x115;" horiz-adv-x="570" 
d="M505 410v-185h-335v-95c0 -35 25 -60 60 -60h255v-70h-265c-95 0 -155 61 -155 130v280c0 69 60 130 155 130h130c95 0 155 -61 155 -130zM170 410v-115h230v115c0 35 -25 60 -60 60h-110c-35 0 -60 -25 -60 -60zM335 600h-100c-65 0 -100 35 -100 95v45h85v-45
c0 -20 10 -30 30 -30h70c20 0 30 10 30 30v45h85v-45c0 -60 -35 -95 -100 -95z" />
    <glyph glyph-name="ecaron" unicode="&#x11b;" horiz-adv-x="570" 
d="M505 410v-185h-335v-95c0 -35 25 -60 60 -60h255v-70h-265c-95 0 -155 61 -155 130v280c0 69 60 130 155 130h130c95 0 155 -61 155 -130zM170 410v-115h230v115c0 35 -25 60 -60 60h-110c-35 0 -60 -25 -60 -60zM365 750h95l-130 -150h-90l-130 150h95l80 -90z" />
    <glyph glyph-name="ecircumflex" unicode="&#xea;" horiz-adv-x="570" 
d="M505 410v-185h-335v-95c0 -35 25 -60 60 -60h255v-70h-265c-95 0 -155 61 -155 130v280c0 69 60 130 155 130h130c95 0 155 -61 155 -130zM170 410v-115h230v115c0 35 -25 60 -60 60h-110c-35 0 -60 -25 -60 -60zM460 610h-95l-80 90l-80 -90h-95l130 150h90z" />
    <glyph glyph-name="edieresis" unicode="&#xeb;" horiz-adv-x="570" 
d="M505 410v-185h-335v-95c0 -35 25 -60 60 -60h255v-70h-265c-95 0 -155 61 -155 130v280c0 69 60 130 155 130h130c95 0 155 -61 155 -130zM170 410v-115h230v115c0 35 -25 60 -60 60h-110c-35 0 -60 -25 -60 -60zM237 720v-105h-105v105h105zM437 720v-105h-105v105h105z
" />
    <glyph glyph-name="edotaccent" unicode="&#x117;" horiz-adv-x="570" 
d="M505 410v-185h-335v-95c0 -35 25 -60 60 -60h255v-70h-265c-95 0 -155 61 -155 130v280c0 69 60 130 155 130h130c95 0 155 -61 155 -130zM170 410v-115h230v115c0 35 -25 60 -60 60h-110c-35 0 -60 -25 -60 -60zM337 720v-105h-105v105h105z" />
    <glyph glyph-name="egrave" unicode="&#xe8;" horiz-adv-x="570" 
d="M505 410v-185h-335v-95c0 -35 25 -60 60 -60h255v-70h-265c-95 0 -155 61 -155 130v280c0 69 60 130 155 130h130c95 0 155 -61 155 -130zM170 410v-115h230v115c0 35 -25 60 -60 60h-110c-35 0 -60 -25 -60 -60zM140 770h120l90 -160h-95z" />
    <glyph glyph-name="emacron" unicode="&#x113;" horiz-adv-x="570" 
d="M505 410v-185h-335v-95c0 -35 25 -60 60 -60h255v-70h-265c-95 0 -155 61 -155 130v280c0 69 60 130 155 130h130c95 0 155 -61 155 -130zM170 410v-115h230v115c0 35 -25 60 -60 60h-110c-35 0 -60 -25 -60 -60zM435 700v-70h-300v70h300z" />
    <glyph glyph-name="eogonek" unicode="&#x119;" horiz-adv-x="570" 
d="M505 410v-185h-335v-95c0 -35 25 -60 60 -60h255v-70h-120c-20 -11 -38 -23 -53 -35c-27 -21 -52 -49 -52 -80c0 -20 15 -35 35 -35h80v-60h-80c-91 0 -125 35 -125 95c0 37 25 67 50 86c15 11 31 21 50 29h-50c-95 0 -155 61 -155 130v280c0 69 60 130 155 130h130
c95 0 155 -61 155 -130zM170 410v-115h230v115c0 35 -25 60 -60 60h-110c-35 0 -60 -25 -60 -60z" />
    <glyph glyph-name="gbreve" unicode="&#x11f;" 
d="M70 325v85c0 69 60 130 155 130h145l35 80h95v-40l-55 -50v-5c15 -6 28 -14 40 -24c20 -19 40 -46 40 -91v-85c0 -69 -60 -130 -155 -130h-170c-11 0 -20 -9 -20 -20v-25c0 -11 9 -20 20 -20h205c95 0 155 -61 155 -130v-40c0 -69 -60 -130 -155 -130h-215
c-95 0 -155 61 -155 130v40c0 40 21 65 42 80c12 9 26 15 43 20v5c-7 2 -13 5 -18 9c-9 7 -17 17 -17 36v25c0 17 8 29 17 36c5 4 11 7 18 9v5c-9 5 -18 11 -25 20c-13 15 -25 40 -25 80zM175 410v-85c0 -35 25 -60 60 -60h125c35 0 60 25 60 60v85c0 35 -25 60 -60 60h-125
c-35 0 -60 -25 -60 -60zM140 0v-40c0 -35 25 -60 60 -60h195c35 0 60 25 60 60v40c0 35 -25 60 -60 60h-195c-35 0 -60 -25 -60 -60zM347 620h-100c-65 0 -100 35 -100 95v45h85v-45c0 -20 10 -30 30 -30h70c20 0 30 10 30 30v45h85v-45c0 -60 -35 -95 -100 -95z" />
    <glyph glyph-name="gcircumflex" unicode="&#x11d;" 
d="M70 325v85c0 69 60 130 155 130h145l35 80h95v-40l-55 -50v-5c15 -6 28 -14 40 -24c20 -19 40 -46 40 -91v-85c0 -69 -60 -130 -155 -130h-170c-11 0 -20 -9 -20 -20v-25c0 -11 9 -20 20 -20h205c95 0 155 -61 155 -130v-40c0 -69 -60 -130 -155 -130h-215
c-95 0 -155 61 -155 130v40c0 40 21 65 42 80c12 9 26 15 43 20v5c-7 2 -13 5 -18 9c-9 7 -17 17 -17 36v25c0 17 8 29 17 36c5 4 11 7 18 9v5c-9 5 -18 11 -25 20c-13 15 -25 40 -25 80zM175 410v-85c0 -35 25 -60 60 -60h125c35 0 60 25 60 60v85c0 35 -25 60 -60 60h-125
c-35 0 -60 -25 -60 -60zM140 0v-40c0 -35 25 -60 60 -60h195c35 0 60 25 60 60v40c0 35 -25 60 -60 60h-195c-35 0 -60 -25 -60 -60zM472 630h-95l-80 90l-80 -90h-95l130 150h90z" />
    <glyph glyph-name="gcommaaccent" unicode="&#x123;" 
d="M70 325v85c0 69 60 130 155 130h145l35 80h95v-40l-55 -50v-5c15 -6 28 -14 40 -24c20 -19 40 -46 40 -91v-85c0 -69 -60 -130 -155 -130h-170c-11 0 -20 -9 -20 -20v-25c0 -11 9 -20 20 -20h205c95 0 155 -61 155 -130v-40c0 -69 -60 -130 -155 -130h-215
c-95 0 -155 61 -155 130v40c0 40 21 65 42 80c12 9 26 15 43 20v5c-7 2 -13 5 -18 9c-9 7 -17 17 -17 36v25c0 17 8 29 17 36c5 4 11 7 18 9v5c-9 5 -18 11 -25 20c-13 15 -25 40 -25 80zM175 410v-85c0 -35 25 -60 60 -60h125c35 0 60 25 60 60v85c0 35 -25 60 -60 60h-125
c-35 0 -60 -25 -60 -60zM140 0v-40c0 -35 25 -60 60 -60h195c35 0 60 25 60 60v40c0 35 -25 60 -60 60h-195c-35 0 -60 -25 -60 -60zM245 715l40 110h55v-195h-95v85z" />
    <glyph glyph-name="gdotaccent" unicode="&#x121;" 
d="M70 325v85c0 69 60 130 155 130h145l35 80h95v-40l-55 -50v-5c15 -6 28 -14 40 -24c20 -19 40 -46 40 -91v-85c0 -69 -60 -130 -155 -130h-170c-11 0 -20 -9 -20 -20v-25c0 -11 9 -20 20 -20h205c95 0 155 -61 155 -130v-40c0 -69 -60 -130 -155 -130h-215
c-95 0 -155 61 -155 130v40c0 40 21 65 42 80c12 9 26 15 43 20v5c-7 2 -13 5 -18 9c-9 7 -17 17 -17 36v25c0 17 8 29 17 36c5 4 11 7 18 9v5c-9 5 -18 11 -25 20c-13 15 -25 40 -25 80zM175 410v-85c0 -35 25 -60 60 -60h125c35 0 60 25 60 60v85c0 35 -25 60 -60 60h-125
c-35 0 -60 -25 -60 -60zM140 0v-40c0 -35 25 -60 60 -60h195c35 0 60 25 60 60v40c0 35 -25 60 -60 60h-195c-35 0 -60 -25 -60 -60zM350 720v-105h-105v105h105z" />
    <glyph glyph-name="hbar" unicode="&#x127;" horiz-adv-x="615" 
d="M350 590v-70h-150v-90h195c95 0 155 -61 155 -130v-300h-105v300c0 35 -25 60 -60 60h-185v-360h-105v520h-85v70h85l55 110h50v-110h150z" />
    <glyph glyph-name="hcircumflex" unicode="&#x125;" horiz-adv-x="610" 
d="M370 460h-185v-460h-105v700h105v-170h195c95 0 155 -61 155 -130v-400h-105v400c0 35 -25 60 -60 60zM311 750h-95l-80 90l-80 -90h-95l130 150h90z" />
    <glyph glyph-name="dotlessi" unicode="&#x131;" horiz-adv-x="255" 
d="M180 530v-530h-105v530h105z" />
    <glyph glyph-name="iacute" unicode="&#xed;" horiz-adv-x="255" 
d="M180 530v-530h-105v530h105zM163 770h120l-115 -160h-95z" />
    <glyph glyph-name="ibreve" unicode="&#x12d;" horiz-adv-x="260" 
d="M182 530v-530h-105v530h105zM181 600h-100c-65 0 -100 35 -100 95v45h85v-45c0 -20 10 -30 30 -30h70c20 0 30 10 30 30v45h85v-45c0 -60 -35 -95 -100 -95z" />
    <glyph glyph-name="icircumflex" unicode="&#xee;" horiz-adv-x="255" 
d="M180 530v-530h-105v530h105zM304 600h-95l-80 90l-80 -90h-95l130 150h90z" />
    <glyph glyph-name="idieresis" unicode="&#xef;" horiz-adv-x="255" 
d="M180 530v-530h-105v530h105zM81 700v-105h-105v105h105zM281 700v-105h-105v105h105z" />
    <glyph glyph-name="igrave" unicode="&#xec;" horiz-adv-x="255" 
d="M180 530v-530h-105v530h105zM-26 770h120l90 -160h-95z" />
    <glyph glyph-name="imacron" unicode="&#x12b;" horiz-adv-x="260" 
d="M182 530v-530h-105v530h105zM281 691v-70h-300v70h300z" />
    <glyph glyph-name="iogonek" unicode="&#x12f;" horiz-adv-x="255" 
d="M180 530v-550c-18 -7 -34 -16 -48 -25c-24 -16 -47 -39 -47 -70c0 -20 15 -35 35 -35h80v-60h-80c-91 0 -125 35 -125 95c0 37 25 67 50 86c15 11 31 21 50 29h-20v530h105zM180 710v-105h-105v105h105z" />
    <glyph glyph-name="itilde" unicode="&#x129;" horiz-adv-x="260" 
d="M182 530v-530h-105v530h105zM201 735h80v-70c0 -40 -30 -70 -70 -70h-25c-11 0 -21 5 -30 10c-5 3 -10 6 -15 10l-39 35c-3 2 -6 4 -9 7c-5 4 -12 8 -16 8c-15 0 -16 -9 -16 -20v-45h-80v70c0 40 30 70 70 70h25c11 0 21 -5 30 -10c5 -3 10 -6 15 -10l40 -35l9 -8
c6 -5 11 -7 16 -7c15 0 15 9 15 20v45z" />
    <glyph glyph-name="ij" unicode="&#x133;" horiz-adv-x="525" 
d="M180 530v-530h-105v530h105zM180 710v-105h-105v105h105zM295 -170h-115v70h105c35 0 60 25 60 60v570h105v-570c0 -69 -60 -130 -155 -130zM450 710v-105h-105v105h105z" />
    <glyph glyph-name="jcircumflex" unicode="&#x135;" horiz-adv-x="270" 
d="M40 -170h-115v70h105c35 0 60 25 60 60v570h105v-570c0 -69 -60 -130 -155 -130zM310 600h-95l-80 90l-80 -90h-95l130 150h90z" />
    <glyph glyph-name="kcommaaccent" unicode="&#x137;" horiz-adv-x="575" 
d="M185 700v-400h120l115 230h100v-45l-130 -220l145 -220v-45h-100l-130 230h-120v-230h-105v700h105zM345 -115l-40 -110h-55v195h95v-85z" />
    <glyph glyph-name="lacute" unicode="&#x13a;" horiz-adv-x="305" 
d="M275 -10h-40c-95 0 -155 61 -155 130v580h105v-580c0 -35 25 -60 60 -60h30v-70zM167 930h120l-115 -160h-95z" />
    <glyph glyph-name="lcaron" unicode="&#x13e;" horiz-adv-x="415" 
d="M275 -10h-40c-95 0 -155 61 -155 130v580h105v-580c0 -35 25 -60 60 -60h30v-70zM380 615l-50 -135h-55v220h105v-85z" />
    <glyph glyph-name="lcommaaccent" unicode="&#x13c;" horiz-adv-x="305" 
d="M275 -10h-40c-95 0 -155 61 -155 130v580h105v-580c0 -35 25 -60 60 -60h30v-70zM220 -154l-40 -110h-55v195h95v-85z" />
    <glyph glyph-name="ldot" unicode="&#x140;" horiz-adv-x="420" 
d="M275 -10h-40c-95 0 -155 61 -155 130v580h105v-580c0 -35 25 -60 60 -60h30v-70zM385 420v-120h-105v120h105z" />
    <glyph glyph-name="lslash" unicode="&#x142;" horiz-adv-x="305" 
d="M20 340l60 33v327h105v-268l85 48v-95l-85 -48v-217c0 -35 25 -60 60 -60h30v-70h-40c-95 0 -155 61 -155 130v158l-60 -33v95z" />
    <glyph glyph-name="nacute" unicode="&#x144;" horiz-adv-x="610" 
d="M370 470h-85c-40 0 -67 -22 -83 -43c-9 -12 -17 -26 -22 -42v-385h-105v530h65l20 -65h5c6 13 15 26 26 37c19 19 49 38 94 38h95c95 0 155 -61 155 -130v-410h-105v410c0 35 -25 60 -60 60zM350 770h120l-115 -160h-95z" />
    <glyph glyph-name="ncaron" unicode="&#x148;" horiz-adv-x="610" 
d="M370 470h-85c-40 0 -67 -22 -83 -43c-9 -12 -17 -26 -22 -42v-385h-105v530h65l20 -65h5c6 13 15 26 26 37c19 19 49 38 94 38h95c95 0 155 -61 155 -130v-410h-105v410c0 35 -25 60 -60 60zM395 760h95l-130 -150h-90l-130 150h95l80 -90z" />
    <glyph glyph-name="ncommaaccent" unicode="&#x146;" horiz-adv-x="610" 
d="M370 470h-85c-40 0 -67 -22 -83 -43c-9 -12 -17 -26 -22 -42v-385h-105v530h65l20 -65h5c6 13 15 26 26 37c19 19 49 38 94 38h95c95 0 155 -61 155 -130v-410h-105v410c0 35 -25 60 -60 60zM352 -115l-40 -110h-55v195h95v-85z" />
    <glyph glyph-name="ntilde" unicode="&#xf1;" horiz-adv-x="610" 
d="M370 470h-85c-40 0 -67 -22 -83 -43c-9 -12 -17 -26 -22 -42v-385h-105v530h65l20 -65h5c6 13 15 26 26 37c19 19 49 38 94 38h95c95 0 155 -61 155 -130v-410h-105v410c0 35 -25 60 -60 60zM375 745h80v-70c0 -40 -30 -70 -70 -70h-25c-11 0 -21 5 -30 10
c-5 3 -10 6 -15 10l-39 35c-3 2 -6 4 -9 7c-5 4 -12 8 -16 8c-15 0 -16 -9 -16 -20v-45h-80v70c0 40 30 70 70 70h25c11 0 21 -5 30 -10c5 -3 10 -6 15 -10l40 -35l9 -8c6 -5 11 -7 16 -7c15 0 15 9 15 20v45z" />
    <glyph glyph-name="oacute" unicode="&#xf3;" 
d="M530 410v-290c0 -69 -60 -130 -155 -130h-155c-95 0 -155 61 -155 130v290c0 69 60 130 155 130h155c95 0 155 -61 155 -130zM170 410v-290c0 -35 25 -60 60 -60h135c35 0 60 25 60 60v290c0 35 -25 60 -60 60h-135c-35 0 -60 -25 -60 -60zM332 770h120l-115 -160h-95z
" />
    <glyph glyph-name="obreve" unicode="&#x14f;" 
d="M530 410v-290c0 -69 -60 -130 -155 -130h-155c-95 0 -155 61 -155 130v290c0 69 60 130 155 130h155c95 0 155 -61 155 -130zM170 410v-290c0 -35 25 -60 60 -60h135c35 0 60 25 60 60v290c0 35 -25 60 -60 60h-135c-35 0 -60 -25 -60 -60zM347 610h-100
c-65 0 -100 35 -100 95v45h85v-45c0 -20 10 -30 30 -30h70c20 0 30 10 30 30v45h85v-45c0 -60 -35 -95 -100 -95z" />
    <glyph glyph-name="ocircumflex" unicode="&#xf4;" 
d="M530 410v-290c0 -69 -60 -130 -155 -130h-155c-95 0 -155 61 -155 130v290c0 69 60 130 155 130h155c95 0 155 -61 155 -130zM170 410v-290c0 -35 25 -60 60 -60h135c35 0 60 25 60 60v290c0 35 -25 60 -60 60h-135c-35 0 -60 -25 -60 -60zM472 600h-95l-80 90l-80 -90
h-95l130 150h90z" />
    <glyph glyph-name="odieresis" unicode="&#xf6;" 
d="M530 410v-290c0 -69 -60 -130 -155 -130h-155c-95 0 -155 61 -155 130v290c0 69 60 130 155 130h155c95 0 155 -61 155 -130zM170 410v-290c0 -35 25 -60 60 -60h135c35 0 60 25 60 60v290c0 35 -25 60 -60 60h-135c-35 0 -60 -25 -60 -60zM250 710v-105h-105v105h105z
M450 710v-105h-105v105h105z" />
    <glyph glyph-name="ograve" unicode="&#xf2;" 
d="M530 410v-290c0 -69 -60 -130 -155 -130h-155c-95 0 -155 61 -155 130v290c0 69 60 130 155 130h155c95 0 155 -61 155 -130zM170 410v-290c0 -35 25 -60 60 -60h135c35 0 60 25 60 60v290c0 35 -25 60 -60 60h-135c-35 0 -60 -25 -60 -60zM152 770h120l90 -160h-95z" />
    <glyph glyph-name="ohungarumlaut" unicode="&#x151;" 
d="M530 410v-290c0 -69 -60 -130 -155 -130h-155c-95 0 -155 61 -155 130v290c0 69 60 130 155 130h155c95 0 155 -61 155 -130zM170 410v-290c0 -35 25 -60 60 -60h135c35 0 60 25 60 60v290c0 35 -25 60 -60 60h-135c-35 0 -60 -25 -60 -60zM240 770h105l-105 -160h-90z
M420 770h105l-105 -160h-90z" />
    <glyph glyph-name="omacron" unicode="&#x14d;" 
d="M530 410v-290c0 -69 -60 -130 -155 -130h-155c-95 0 -155 61 -155 130v290c0 69 60 130 155 130h155c95 0 155 -61 155 -130zM170 410v-290c0 -35 25 -60 60 -60h135c35 0 60 25 60 60v290c0 35 -25 60 -60 60h-135c-35 0 -60 -25 -60 -60zM447 700v-70h-300v70h300z" />
    <glyph glyph-name="oslash" unicode="&#xf8;" 
d="M530 540l-32 -49c21 -23 32 -50 32 -81v-290c0 -69 -60 -130 -155 -130h-155c-15 0 -31 2 -46 5l-29 -45h-85v40l34 52c-19 23 -29 49 -29 78v290c0 69 60 130 155 130h155c15 0 28 -1 41 -4l29 44h85v-40zM220 60h145c35 0 60 25 60 60v279l-218 -338c3 -1 7 -1 13 -1z
M170 410v-272l213 331c-2 1 -5 1 -8 1h-145c-35 0 -60 -25 -60 -60z" />
    <glyph glyph-name="oslashacute" unicode="&#x1ff;" 
d="M530 540l-32 -49c21 -23 32 -50 32 -81v-290c0 -69 -60 -130 -155 -130h-155c-15 0 -31 2 -46 5l-29 -45h-85v40l34 52c-19 23 -29 49 -29 78v290c0 69 60 130 155 130h155c15 0 28 -1 41 -4l29 44h85v-40zM220 60h145c35 0 60 25 60 60v279l-218 -338c3 -1 7 -1 13 -1z
M170 410v-272l213 331c-2 1 -5 1 -8 1h-145c-35 0 -60 -25 -60 -60zM332 770h120l-115 -160h-95z" />
    <glyph glyph-name="otilde" unicode="&#xf5;" 
d="M530 410v-290c0 -69 -60 -130 -155 -130h-155c-95 0 -155 61 -155 130v290c0 69 60 130 155 130h155c95 0 155 -61 155 -130zM170 410v-290c0 -35 25 -60 60 -60h135c35 0 60 25 60 60v290c0 35 -25 60 -60 60h-135c-35 0 -60 -25 -60 -60zM367 745h80v-70
c0 -40 -30 -70 -70 -70h-25c-11 0 -21 5 -30 10c-5 3 -10 6 -15 10l-39 35c-3 2 -6 4 -9 7c-5 4 -12 8 -16 8c-15 0 -16 -9 -16 -20v-45h-80v70c0 40 30 70 70 70h25c11 0 21 -5 30 -10c5 -3 10 -6 15 -10l40 -35l9 -8c6 -5 11 -7 16 -7c15 0 15 9 15 20v45z" />
    <glyph glyph-name="oe" unicode="&#x153;" horiz-adv-x="930" 
d="M865 410v-185h-335v-105c0 -25 25 -50 60 -50h255v-70h-255c-39 0 -64 12 -81 25c-10 7 -18 16 -24 25c-7 -11 -16 -21 -27 -30c-19 -15 -51 -30 -98 -30h-140c-95 0 -155 61 -155 130v290c0 69 60 130 155 130h140c45 0 75 -13 94 -25c11 -7 20 -16 26 -25
c6 9 14 18 25 25c17 12 45 25 85 25h120c95 0 155 -61 155 -130zM170 410v-290c0 -35 25 -60 60 -60h130c36 0 65 30 65 60v290c0 37 -25 60 -60 60h-135c-35 0 -60 -25 -60 -60zM530 410v-115h230v115c0 35 -25 60 -60 60h-110c-35 0 -60 -25 -60 -60z" />
    <glyph glyph-name="racute" unicode="&#x155;" horiz-adv-x="435" 
d="M160 465h5c6 13 15 26 26 37c19 19 49 38 94 38h130v-80h-130c-39 0 -64 -19 -81 -38c-10 -11 -18 -24 -24 -37v-385h-105v530h65zM272 770h120l-115 -160h-95z" />
    <glyph glyph-name="rcaron" unicode="&#x159;" horiz-adv-x="435" 
d="M160 465h5c6 13 15 26 26 37c19 19 49 38 94 38h130v-80h-130c-39 0 -64 -19 -81 -38c-10 -11 -18 -24 -24 -37v-385h-105v530h65zM317 760h95l-130 -150h-90l-130 150h95l80 -90z" />
    <glyph glyph-name="rcommaaccent" unicode="&#x157;" horiz-adv-x="435" 
d="M160 465h5c6 13 15 26 26 37c19 19 49 38 94 38h130v-80h-130c-39 0 -64 -19 -81 -38c-10 -11 -18 -24 -24 -37v-385h-105v530h65zM175 -154l-40 -110h-55v195h95v-85z" />
    <glyph glyph-name="sacute" unicode="&#x15b;" horiz-adv-x="530" 
d="M150 400v-35c0 -25 15 -40 45 -45l180 -30c65 -9 110 -54 110 -125v-35c0 -69 -60 -130 -155 -130h-285v70h275c35 0 60 25 60 60v35c0 25 -15 40 -45 45l-180 30c-65 9 -110 54 -110 125v35c0 69 60 130 155 130h260v-35l-30 -35h-220c-35 0 -60 -25 -60 -60zM290 770
h120l-115 -160h-95z" />
    <glyph glyph-name="scaron" unicode="&#x161;" horiz-adv-x="530" 
d="M150 400v-35c0 -25 15 -40 45 -45l180 -30c65 -9 110 -54 110 -125v-35c0 -69 -60 -130 -155 -130h-285v70h275c35 0 60 25 60 60v35c0 25 -15 40 -45 45l-180 30c-65 9 -110 54 -110 125v35c0 69 60 130 155 130h260v-35l-30 -35h-220c-35 0 -60 -25 -60 -60zM335 760
h95l-130 -150h-90l-130 150h95l80 -90z" />
    <glyph glyph-name="scedilla" unicode="&#x15f;" horiz-adv-x="530" 
d="M150 400v-35c0 -25 15 -40 45 -45l180 -30c65 -9 110 -54 110 -125v-35c0 -69 -60 -130 -155 -130h-78v-45h40c56 0 95 -39 95 -90v-15c0 -51 -39 -90 -95 -90h-130v60h105c15 0 30 15 30 30v15c0 15 -15 30 -30 30h-80v105h-142v70h275c35 0 60 25 60 60v35
c0 25 -15 40 -45 45l-180 30c-65 9 -110 54 -110 125v35c0 69 60 130 155 130h260v-35l-30 -35h-220c-35 0 -60 -25 -60 -60z" />
    <glyph glyph-name="scircumflex" unicode="&#x15d;" horiz-adv-x="530" 
d="M150 400v-35c0 -25 15 -40 45 -45l180 -30c65 -9 110 -54 110 -125v-35c0 -69 -60 -130 -155 -130h-285v70h275c35 0 60 25 60 60v35c0 25 -15 40 -45 45l-180 30c-65 9 -110 54 -110 125v35c0 69 60 130 155 130h260v-35l-30 -35h-220c-35 0 -60 -25 -60 -60zM440 610
h-95l-80 90l-80 -90h-95l130 150h90z" />
    <glyph glyph-name="scommaaccent" unicode="&#x219;" horiz-adv-x="530" 
d="M150 400v-35c0 -25 15 -40 45 -45l180 -30c65 -9 110 -54 110 -125v-35c0 -69 -60 -130 -155 -130h-285v70h275c35 0 60 25 60 60v35c0 25 -15 40 -45 45l-180 30c-65 9 -110 54 -110 125v35c0 69 60 130 155 130h260v-35l-30 -35h-220c-35 0 -60 -25 -60 -60zM312 -154
l-40 -110h-55v195h95v-85z" />
    <glyph glyph-name="tbar" unicode="&#x167;" horiz-adv-x="440" 
d="M360 530v-70h-150v-80h140v-70h-140v-190c0 -35 25 -60 60 -60h155v-70h-165c-95 0 -155 61 -155 130v190h-85v70h85v80h-85v70h85l55 140h50v-140h150z" />
    <glyph glyph-name="tcaron" unicode="&#x165;" horiz-adv-x="550" 
d="M360 530v-70h-150v-340c0 -35 25 -60 60 -60h155v-70h-165c-95 0 -155 61 -155 130v340h-85v70h85l55 140h50v-140h150zM525 586l-50 -135h-55v220h105v-85z" />
    <glyph glyph-name="tcommaaccent" unicode="&#x163;" horiz-adv-x="440" 
d="M360 530v-70h-150v-340c0 -35 25 -60 60 -60h155v-70h-165c-95 0 -155 61 -155 130v340h-85v70h85l55 140h50v-140h150zM297 -154l-40 -110h-55v195h95v-85z" />
    <glyph glyph-name="uacute" unicode="&#xfa;" horiz-adv-x="610" 
d="M240 60h85c40 0 66 21 82 42c9 12 17 26 23 43v385h105v-530h-65l-20 65h-5c-6 -14 -15 -27 -26 -38c-19 -19 -49 -37 -94 -37h-95c-95 0 -155 61 -155 130v410h105v-410c0 -35 25 -60 60 -60zM340 740h120l-115 -160h-95z" />
    <glyph glyph-name="ubreve" unicode="&#x16d;" horiz-adv-x="610" 
d="M240 60h85c40 0 66 21 82 42c9 12 17 26 23 43v385h105v-530h-65l-20 65h-5c-6 -14 -15 -27 -26 -38c-19 -19 -49 -37 -94 -37h-95c-95 0 -155 61 -155 130v410h105v-410c0 -35 25 -60 60 -60zM365 590h-100c-65 0 -100 35 -100 95v45h85v-45c0 -20 10 -30 30 -30h70
c20 0 30 10 30 30v45h85v-45c0 -60 -35 -95 -100 -95z" />
    <glyph glyph-name="ucircumflex" unicode="&#xfb;" horiz-adv-x="610" 
d="M240 60h85c40 0 66 21 82 42c9 12 17 26 23 43v385h105v-530h-65l-20 65h-5c-6 -14 -15 -27 -26 -38c-19 -19 -49 -37 -94 -37h-95c-95 0 -155 61 -155 130v410h105v-410c0 -35 25 -60 60 -60zM490 600h-95l-80 90l-80 -90h-95l130 150h90z" />
    <glyph glyph-name="udieresis" unicode="&#xfc;" horiz-adv-x="610" 
d="M240 60h85c40 0 66 21 82 42c9 12 17 26 23 43v385h105v-530h-65l-20 65h-5c-6 -14 -15 -27 -26 -38c-19 -19 -49 -37 -94 -37h-95c-95 0 -155 61 -155 130v410h105v-410c0 -35 25 -60 60 -60zM267 710v-105h-105v105h105zM467 710v-105h-105v105h105z" />
    <glyph glyph-name="uhungarumlaut" unicode="&#x171;" horiz-adv-x="610" 
d="M240 60h85c40 0 66 21 82 42c9 12 17 26 23 43v385h105v-530h-65l-20 65h-5c-6 -14 -15 -27 -26 -38c-19 -19 -49 -37 -94 -37h-95c-95 0 -155 61 -155 130v410h105v-410c0 -35 25 -60 60 -60zM247 760h105l-105 -160h-90zM427 760h105l-105 -160h-90z" />
    <glyph glyph-name="ugrave" unicode="&#xf9;" horiz-adv-x="610" 
d="M240 60h85c40 0 66 21 82 42c9 12 17 26 23 43v385h105v-530h-65l-20 65h-5c-6 -14 -15 -27 -26 -38c-19 -19 -49 -37 -94 -37h-95c-95 0 -155 61 -155 130v410h105v-410c0 -35 25 -60 60 -60zM160 760h120l90 -160h-95z" />
    <glyph glyph-name="umacron" unicode="&#x16b;" horiz-adv-x="610" 
d="M240 60h85c40 0 66 21 82 42c9 12 17 26 23 43v385h105v-530h-65l-20 65h-5c-6 -14 -15 -27 -26 -38c-19 -19 -49 -37 -94 -37h-95c-95 0 -155 61 -155 130v410h105v-410c0 -35 25 -60 60 -60zM465 700v-70h-300v70h300z" />
    <glyph glyph-name="uogonek" unicode="&#x173;" horiz-adv-x="610" 
d="M240 60h85c40 0 66 21 82 42c9 12 17 26 23 43v385h105v-550c-18 -7 -34 -16 -48 -25c-24 -16 -47 -39 -47 -70c0 -20 15 -35 35 -35h80v-60h-80c-91 0 -125 35 -125 95c0 37 25 67 50 86c15 11 31 21 50 29h20l-20 65h-5c-6 -14 -15 -27 -26 -38
c-19 -19 -49 -37 -94 -37h-95c-95 0 -155 61 -155 130v410h105v-410c0 -35 25 -60 60 -60z" />
    <glyph glyph-name="uring" unicode="&#x16f;" horiz-adv-x="610" 
d="M240 60h85c40 0 66 21 82 42c9 12 17 26 23 43v385h105v-530h-65l-20 65h-5c-6 -14 -15 -27 -26 -38c-19 -19 -49 -37 -94 -37h-95c-95 0 -155 61 -155 130v410h105v-410c0 -35 25 -60 60 -60zM425 690v-50c0 -45 -34 -80 -85 -80h-70c-51 0 -85 35 -85 80v50
c0 40 34 80 85 80h70c51 0 85 -35 85 -80zM295 615h20c17 0 25 8 25 25v50c0 17 -8 25 -25 25h-20c-17 0 -25 -8 -25 -25v-50c0 -17 8 -25 25 -25z" />
    <glyph glyph-name="utilde" unicode="&#x169;" horiz-adv-x="610" 
d="M240 60h85c40 0 66 21 82 42c9 12 17 26 23 43v385h105v-530h-65l-20 65h-5c-6 -14 -15 -27 -26 -38c-19 -19 -49 -37 -94 -37h-95c-95 0 -155 61 -155 130v410h105v-410c0 -35 25 -60 60 -60zM375 745h80v-70c0 -40 -30 -70 -70 -70h-25c-11 0 -21 5 -30 10
c-5 3 -10 6 -15 10l-39 35c-3 2 -6 4 -9 7c-5 4 -12 8 -16 8c-15 0 -16 -9 -16 -20v-45h-80v70c0 40 30 70 70 70h25c11 0 21 -5 30 -10c5 -3 10 -6 15 -10l40 -35l9 -8c6 -5 11 -7 16 -7c15 0 15 9 15 20v45z" />
    <glyph glyph-name="wacute" unicode="&#x1e83;" horiz-adv-x="805" 
d="M470 455l110 -355h5l80 430h100v-45l-110 -485h-140l-110 365h-5l-110 -365h-140l-110 485v45h100l80 -430h5l110 355h135zM437 700h120l-115 -160h-95z" />
    <glyph glyph-name="wcircumflex" unicode="&#x175;" horiz-adv-x="805" 
d="M470 455l110 -355h5l80 430h100v-45l-110 -485h-140l-110 365h-5l-110 -365h-140l-110 485v45h100l80 -430h5l110 355h135zM577 550h-95l-80 90l-80 -90h-95l130 150h90z" />
    <glyph glyph-name="wdieresis" unicode="&#x1e85;" horiz-adv-x="805" 
d="M470 455l110 -355h5l80 430h100v-45l-110 -485h-140l-110 365h-5l-110 -365h-140l-110 485v45h100l80 -430h5l110 355h135zM355 681v-105h-105v105h105zM555 681v-105h-105v105h105z" />
    <glyph glyph-name="wgrave" unicode="&#x1e81;" horiz-adv-x="805" 
d="M470 455l110 -355h5l80 430h100v-45l-110 -485h-140l-110 365h-5l-110 -365h-140l-110 485v45h100l80 -430h5l110 355h135zM247 710h120l90 -160h-95z" />
    <glyph glyph-name="yacute" unicode="&#xfd;" horiz-adv-x="540" 
d="M515 485l-190 -525c-24 -69 -85 -130 -180 -130h-50v70h50c40 0 63 25 75 60l10 30v10l-205 485v45h100l155 -435h5l130 435h100v-45zM305 760h120l-115 -160h-95z" />
    <glyph glyph-name="ycircumflex" unicode="&#x177;" horiz-adv-x="540" 
d="M515 485l-190 -525c-24 -69 -85 -130 -180 -130h-50v70h50c40 0 63 25 75 60l10 30v10l-205 485v45h100l155 -435h5l130 435h100v-45zM455 600h-95l-80 90l-80 -90h-95l130 150h90z" />
    <glyph glyph-name="ydieresis" unicode="&#xff;" horiz-adv-x="540" 
d="M515 485l-190 -525c-24 -69 -85 -130 -180 -130h-50v70h50c40 0 63 25 75 60l10 30v10l-205 485v45h100l155 -435h5l130 435h100v-45zM232 710v-105h-105v105h105zM432 710v-105h-105v105h105z" />
    <glyph glyph-name="ygrave" unicode="&#x1ef3;" horiz-adv-x="540" 
d="M515 485l-190 -525c-24 -69 -85 -130 -180 -130h-50v70h50c40 0 63 25 75 60l10 30v10l-205 485v45h100l155 -435h5l130 435h100v-45zM125 760h120l90 -160h-95z" />
    <glyph glyph-name="zacute" unicode="&#x17a;" horiz-adv-x="495" 
d="M325 450v10h-265l-30 35v35h425v-65l-295 -385v-10h305v-70h-435v65zM272 770h120l-115 -160h-95z" />
    <glyph glyph-name="zcaron" unicode="&#x17e;" horiz-adv-x="495" 
d="M325 450v10h-265l-30 35v35h425v-65l-295 -385v-10h305v-70h-435v65zM327 750h95l-130 -150h-90l-130 150h95l80 -90z" />
    <glyph glyph-name="zdotaccent" unicode="&#x17c;" horiz-adv-x="495" 
d="M325 450v10h-265l-30 35v35h425v-65l-295 -385v-10h305v-70h-435v65zM300 710v-105h-105v105h105z" />
    <glyph glyph-name="exclamdown" unicode="&#xa1;" horiz-adv-x="280" 
d="M80 0l25 315h75l20 -315v-170h-120v170zM195 530v-120h-105v120h105z" />
    <glyph glyph-name="questiondown" unicode="&#xbf;" horiz-adv-x="469" 
d="M360 315v-35c0 -64 -36 -102 -60 -115l-100 -55c-20 -11 -40 -29 -40 -60v-70c0 -40 30 -70 70 -70h239l30 -35v-45h-279c-111 0 -170 59 -170 150v70c0 60 35 96 70 115l100 55c25 15 45 35 45 60v35h95zM260 410v120h105v-120h-105z" />
    <glyph glyph-name="divide" unicode="&#xf7;" horiz-adv-x="490" 
d="M40 360h410v-80h-410v80zM295 190v-110h-105v110h105zM295 560v-110h-105v110h105z" />
    <glyph glyph-name="multiply" unicode="&#xd7;" horiz-adv-x="480" 
d="M240 375l135 130l55 -55l-135 -130l135 -130l-55 -55l-135 130l-135 -130l-55 55l135 130l-135 130l55 55z" />
    <glyph glyph-name="germandbls" unicode="&#xdf;" horiz-adv-x="620" 
d="M495 570c0 -90 -95 -100 -95 -180v-35c0 -65 195 -65 195 -190v-35c0 -69 -60 -130 -155 -130h-165v70h155c35 0 60 25 60 60v35c0 65 -195 65 -195 190v35c0 90 95 100 95 180c0 35 -25 60 -60 60h-75c-40 0 -70 -30 -70 -70v-560h-105v560c0 85 54 140 165 140h96
c96 0 154 -61 154 -130z" />
    <glyph glyph-name="Eth" unicode="&#xd0;" horiz-adv-x="680" 
d="M600 550v-400c0 -91 -59 -150 -170 -150h-340v320h-70v70h70v310h340c111 0 170 -59 170 -150zM420 620h-220v-230h150v-70h-150v-240h220c40 0 70 30 70 70v400c0 40 -30 70 -70 70z" />
    <glyph glyph-name="eth" unicode="&#xf0;" horiz-adv-x="600" 
d="M225 565l15 75l-115 20l15 80l115 -20l15 80l80 -15l-15 -75l25 -5c95 -18 165 -86 165 -190v-395c0 -69 -60 -130 -155 -130h-150c-95 0 -155 61 -155 130v225c0 69 60 130 155 130h200v40c0 66 -40 102 -75 110l-25 5l-15 -80zM420 120v285h-190c-35 0 -60 -25 -60 -60
v-225c0 -35 25 -60 60 -60h130c35 0 60 25 60 60z" />
    <glyph glyph-name="Thorn" unicode="&#xde;" horiz-adv-x="650" 
d="M200 0h-110v700h110v-110h220c111 0 170 -59 170 -150v-190c0 -91 -59 -150 -170 -150h-220v-100zM200 510v-330h210c40 0 70 30 70 70v190c0 40 -30 70 -70 70h-210z" />
    <glyph glyph-name="thorn" unicode="&#xfe;" horiz-adv-x="600" 
d="M185 700v-170h195c95 0 155 -61 155 -130v-270c0 -69 -60 -130 -155 -130h-195v-170h-105v870h105zM370 460h-185v-390h185c35 0 60 25 60 60v270c0 35 -25 60 -60 60z" />
    <glyph glyph-name="florin" unicode="&#x192;" horiz-adv-x="400" 
d="M30 -170h-55v70h45c35 0 60 25 60 60v620c0 69 60 130 155 130h210v-35l-30 -35h-170c-35 0 -60 -25 -60 -60v-125h165v-70h-165v-425c0 -69 -60 -130 -155 -130z" />
    <glyph glyph-name="sterling" unicode="&#xa3;" horiz-adv-x="565" 
d="M185 80h355v-80h-495v80h35c12 7 23 15 32 24c16 15 33 36 33 61v190h-75v70h75v155c0 69 60 130 155 130h200v-35l-30 -35h-160c-35 0 -60 -25 -60 -60v-155h165v-70h-165v-190c-3 -25 -18 -44 -34 -59c-9 -8 -20 -15 -31 -21v-5z" />
    <glyph glyph-name="cent" unicode="&#xa2;" horiz-adv-x="520" 
d="M350 600v-70h130v-35l-30 -35h-220c-35 0 -60 -25 -60 -60v-270c0 -35 25 -60 60 -60h250v-70h-130v-70h-110v70h-20c-95 0 -155 61 -155 130v270c0 69 60 130 155 130h20v70h110z" />
    <glyph glyph-name="yen" unicode="&#xa5;" horiz-adv-x="600" 
d="M75 320h115l-170 330v50h105l170 -375h10l170 375h105v-50l-171 -330h116v-80h-157l-13 -25v-45h170v-80h-170v-90h-110v90h-170v80h170v45l-13 25h-157v80z" />
    <glyph glyph-name="C" unicode="C" 
d="M80 150v400c0 91 59 150 170 150h305v-45l-30 -35h-265c-40 0 -70 -30 -70 -70v-400c0 -40 30 -70 70 -70h295v-80h-305c-111 0 -170 59 -170 150z" />
    <glyph glyph-name="onequarter" unicode="&#xbc;" horiz-adv-x="796" 
d="M566 700h90v-40l-420 -660h-90v40zM125 630h-85v50l100 20h75v-330h-90v260zM446 120l180 210h85v-205h45v-65h-45v-60h-90v60h-175v60zM541 130v-5h80v95h-5z" />
    <glyph glyph-name="ordmasculine" unicode="&#xba;" horiz-adv-x="395" 
d="M40 475v130c0 65 40 105 120 105h75c80 0 120 -40 120 -105v-130c0 -65 -40 -105 -120 -105h-75c-80 0 -120 40 -120 105zM130 605v-130c0 -27 13 -40 40 -40h55c27 0 40 13 40 40v130c0 27 -13 40 -40 40h-55c-27 0 -40 -13 -40 -40z" />
    <glyph glyph-name="onesuperior" unicode="&#xb9;" horiz-adv-x="255" 
d="M125 630h-85v50l100 20h75v-330h-90v260z" />
    <glyph glyph-name="twosuperior" unicode="&#xb2;" horiz-adv-x="360" 
d="M225 589v6c0 27 -13 40 -40 40h-135v65h145c80 0 120 -39 120 -95v-6c0 -27 -18 -53 -35 -72c-11 -11 -22 -22 -35 -31l-85 -56v-5h160v-65h-280v60l150 105c6 5 12 10 17 16c9 11 18 23 18 38z" />
    <glyph glyph-name="threesuperior" unicode="&#xb3;" horiz-adv-x="360" 
d="M200 370h-160v65h150c27 0 40 13 40 40s-13 40 -40 40h-90v50l90 65v5h-146v65h255v-55l-104 -69c76 0 125 -41 125 -101c0 -65 -40 -105 -120 -105z" />
    <glyph glyph-name="onehalf" unicode="&#xbd;" horiz-adv-x="811" 
d="M546 700h90v-40l-420 -660h-90v40zM125 630h-85v50l100 20h75v-330h-90v260zM676 219v6c0 27 -13 40 -40 40h-135v65h145c80 0 120 -39 120 -95v-6c0 -27 -18 -53 -35 -72c-11 -11 -22 -22 -35 -31l-85 -56v-5h160v-65h-280v60l150 105c6 5 12 10 17 16c9 11 18 23 18 38
z" />
    <glyph glyph-name="threequarters" unicode="&#xbe;" horiz-adv-x="816" 
d="M586 700h90v-40l-420 -660h-90v40zM466 120l180 210h85v-205h45v-65h-45v-60h-90v60h-175v60zM561 130v-5h80v95h-5zM200 370h-160v65h150c27 0 40 13 40 40s-13 40 -40 40h-90v50l90 65v5h-146v65h255v-55l-104 -69c76 0 125 -41 125 -101c0 -65 -40 -105 -120 -105z
" />
    <glyph glyph-name="ordfeminine" unicode="&#xaa;" horiz-adv-x="385" 
d="M200 365h-40c-80 0 -120 40 -120 105s40 105 120 105h95v30c0 27 -13 40 -40 40h-130v65h140c80 0 120 -40 120 -105v-235h-60l-15 50c-4 -11 -9 -20 -16 -28c-11 -15 -29 -27 -54 -27zM255 470v40h-85c-27 0 -40 -13 -40 -40s13 -40 40 -40h30c35 0 55 20 55 40z" />
    <glyph glyph-name="uni04AE" unicode="&#x4ae;" horiz-adv-x="600" 
d="M20 700h105l170 -375h10l170 375h105v-50l-225 -435v-215h-110v215l-225 435v50z" />
    <glyph glyph-name="uni04B2" unicode="&#x4b2;" horiz-adv-x="615" 
d="M505 0h-35l-165 280h-5l-165 -280h-105v50l205 305l-190 295v50h105l150 -280h5l150 280h105v-50l-190 -295l185 -275h60v-220h-85z" />
    <glyph glyph-name="uni04AF" unicode="&#x4af;" horiz-adv-x="556" 
d="M330 -15v-155h-105v155l-195 500v45h100l145 -445h5l146 445h100v-45z" />
    <glyph glyph-name="uni04A0" unicode="&#x4a0;" horiz-adv-x="665" 
d="M0 700h210v-305h135l155 305h105v-50l-170 -295l190 -305v-50h-105l-175 315h-135v-315h-110v620h-100v80z" />
    <glyph glyph-name="uni04A1" unicode="&#x4a1;" horiz-adv-x="580" 
d="M190 530v-230h120l115 230h100v-45l-130 -220l145 -220v-45h-100l-130 230h-120v-230h-105v450h-85v80h190z" />
    <glyph glyph-name="uni04A2" unicode="&#x4a2;" horiz-adv-x="690" 
d="M550 0h-60v310h-290v-310h-110v700h110v-310h290v310h110v-620h60v-220h-85z" />
    <glyph glyph-name="uni049A" unicode="&#x49a;" horiz-adv-x="665" 
d="M555 0h-45l-175 315h-135v-315h-110v700h110v-305h135l155 305h105v-50l-170 -295l171 -275h69v-220h-85z" />
    <glyph glyph-name="uni04BA" unicode="&#x4ba;" horiz-adv-x="650" 
d="M490 0v290c0 40 -30 70 -70 70h-210v-360h-110v700h110v-260h220c111 0 170 -59 170 -150v-290h-110z" />
    <glyph glyph-name="uni04B8" unicode="&#x4b8;" horiz-adv-x="650" 
d="M360 430v-90h90v360h110v-700h-110v260h-90v-90h-95v90h-35c-111 0 -170 59 -170 150v290h110v-290c0 -40 30 -70 70 -70h25v90h95z" />
    <glyph glyph-name="uni0496" unicode="&#x496;" horiz-adv-x="990" 
d="M880 0h-45l-165 315h-125v-315h-110v315h-125l-165 -315h-105v50l180 305l-160 295v50h105l145 -305h125v305h110v-305h125l145 305h105v-50l-160 -295l162 -275h68v-220h-85z" />
    <glyph glyph-name="uni0492" unicode="&#x492;" horiz-adv-x="545" 
d="M20 390h70v310h445v-45l-30 -35h-305v-230h200v-80h-200v-310h-110v310h-70v80z" />
    <glyph glyph-name="uni0493" unicode="&#x493;" horiz-adv-x="475" 
d="M20 290h55v240h390v-35l-30 -35h-255v-170h170v-70h-170v-220h-105v220h-55v70z" />
    <glyph glyph-name="uni0497" unicode="&#x497;" horiz-adv-x="855" 
d="M750 0h-45l-120 230h-110v-230h-105v230h-110l-120 -230h-100v45l135 220l-120 220v45h100l105 -230h110v230h105v-230h110l105 230h100v-45l-120 -220l119 -195h66v-200h-80z" />
    <glyph glyph-name="uni049B" unicode="&#x49b;" horiz-adv-x="580" 
d="M475 0h-45l-130 230h-120v-230h-105v530h105v-230h120l115 230h100v-45l-130 -220l128 -195h67v-200h-80z" />
    <glyph glyph-name="uni04A3" unicode="&#x4a3;" horiz-adv-x="610" 
d="M480 0h-50v235h-250v-235h-105v530h105v-225h250v225h105v-460h50v-200h-80z" />
    <glyph glyph-name="uni04B3" unicode="&#x4b3;" horiz-adv-x="540" 
d="M435 0h-30l-135 200h-5l-135 -200h-100v45l175 220l-165 220v45h100l125 -200h5l125 200h100v-45l-165 -220l155 -195h55v-200h-80z" />
    <glyph glyph-name="uni049C" unicode="&#x49c;" horiz-adv-x="655" 
d="M315 485v-90h20l155 305h105v-50l-170 -295l190 -305v-50h-105l-175 315h-20v-90h-85v90h-30v-315h-110v700h110v-305h30v90h85z" />
    <glyph glyph-name="uni049D" unicode="&#x49d;" horiz-adv-x="570" 
d="M280 380v-80h20l115 230h100v-45l-130 -220l145 -220v-45h-100l-130 230h-20v-90h-80v90h-20v-230h-105v530h105v-230h20v80h80z" />
    <glyph glyph-name="uni04B0" unicode="&#x4b0;" horiz-adv-x="600" 
d="M115 215h130l-225 435v50h105l170 -375h10l170 375h105v-50l-225 -435h130v-80h-130v-135h-110v135h-130v80z" />
    <glyph glyph-name="uni04B9" unicode="&#x4b9;" horiz-adv-x="580" 
d="M320 335v-85h80v280h105v-530h-105v180h-80v-85h-80v85h-30c-95 0 -155 61 -155 130v220h105v-220c0 -35 25 -60 60 -60h20v85h80z" />
    <glyph glyph-name="uni04BB" unicode="&#x4bb;" horiz-adv-x="610" 
d="M370 460h-185v-460h-105v700h105v-170h195c95 0 155 -61 155 -130v-400h-105v400c0 35 -25 60 -60 60z" />
    <glyph glyph-name="uni04B1" unicode="&#x4b1;" horiz-adv-x="556" 
d="M115 15h98l-183 470v45h100l145 -445h5l146 445h100v-45l-184 -470h98v-80h-110v-105h-105v105h-110v80z" />
    <glyph glyph-name="uni04D8" unicode="&#x4d8;" horiz-adv-x="680" 
d="M80 140v260h410v150c0 40 -30 70 -70 70h-300v80h310c111 0 170 -59 170 -150v-410c0 -91 -59 -150 -170 -150h-180c-111 0 -170 59 -170 150zM260 70h160c40 0 70 30 70 70v180h-300v-180c0 -40 30 -70 70 -70z" />
    <glyph glyph-name="uni04AA" unicode="&#x4aa;" 
d="M250 -75v75c-111 0 -170 59 -170 150v400c0 91 59 150 170 150h305v-45l-30 -35h-265c-40 0 -70 -30 -70 -70v-400c0 -40 30 -70 70 -70h295v-80h-215v-75c0 -27 13 -40 40 -40h85v-65h-95c-80 0 -120 40 -120 105z" />
    <glyph glyph-name="uni0498" unicode="&#x498;" horiz-adv-x="585" 
d="M345 315h-185v80h175c40 0 70 30 70 70v85c0 40 -30 70 -70 70h-265l-30 35v45h305c111 0 170 -59 170 -150v-85c0 -45 -25 -71 -50 -86c-15 -9 -31 -15 -50 -19v-5c20 -3 38 -10 55 -19c27 -16 55 -44 55 -91v-95c0 -91 -59 -150 -170 -150v-70
c0 -65 -40 -105 -120 -105h-95v65h85c27 0 40 13 40 40v70h-235v80h315c40 0 70 30 70 70v95c0 40 -30 70 -70 70z" />
    <glyph glyph-name="uni04AB" unicode="&#x4ab;" horiz-adv-x="520" 
d="M220 -60v60c-95 0 -155 61 -155 130v270c0 69 60 130 155 130h260v-35l-30 -35h-220c-35 0 -60 -25 -60 -60v-270c0 -35 25 -60 60 -60h250v-70h-170v-60c0 -27 13 -40 40 -40h70v-65h-80c-80 0 -120 40 -120 105z" />
    <glyph glyph-name="uni0499" unicode="&#x499;" horiz-adv-x="520" 
d="M40 495v35h265c95 0 155 -61 155 -130v-34c0 -41 -25 -63 -50 -76c-15 -7 -31 -12 -50 -15v-5c20 -3 38 -9 55 -16c27 -13 55 -36 55 -79v-45c0 -69 -60 -130 -155 -130v-60c0 -65 -40 -105 -120 -105h-80v65h70c27 0 40 13 40 40v60h-195v70h275c35 0 60 25 60 60v45
c0 35 -25 60 -60 60h-155v70h145c35 0 60 25 60 60v35c0 35 -25 60 -60 60h-225z" />
    <glyph glyph-name="uni04D9" unicode="&#x4d9;" horiz-adv-x="570" 
d="M65 120v185h335v95c0 35 -25 60 -60 60h-255v70h265c95 0 155 -61 155 -130v-280c0 -69 -60 -130 -155 -130h-130c-95 0 -155 61 -155 130zM400 120v115h-230v-115c0 -35 25 -60 60 -60h110c35 0 60 25 60 60z" />
    <glyph glyph-name="uni0473" unicode="&#x473;" 
d="M530 410v-290c0 -69 -60 -130 -155 -130h-155c-95 0 -155 61 -155 130v290c0 69 60 130 155 130h155c95 0 155 -61 155 -130zM170 410v-105h255v105c0 35 -25 60 -60 60h-135c-35 0 -60 -25 -60 -60zM170 235v-115c0 -35 25 -60 60 -60h135c35 0 60 25 60 60v115h-255z
" />
    <glyph glyph-name="uni0472" unicode="&#x472;" horiz-adv-x="680" 
d="M80 140v420c0 91 59 150 170 150h180c111 0 170 -59 170 -150v-420c0 -91 -59 -150 -170 -150h-180c-111 0 -170 59 -170 150zM260 70h160c40 0 70 30 70 70v170h-300v-170c0 -40 30 -70 70 -70zM190 560v-170h300v170c0 40 -30 70 -70 70h-160c-40 0 -70 -30 -70 -70z
" />
    <glyph glyph-name="nbspace" unicode="&#xa0;" horiz-adv-x="300" 
 />
    <glyph glyph-name="foundryicon" horiz-adv-x="1330" 
d="M200 265h-170l170 175v-175zM410 350c0 -51 -39 -90 -90 -90s-90 39 -90 90s39 90 90 90s90 -39 90 -90zM410 435h180l-90 -175zM910 435v-155l-150 155h150zM745 265v155l150 -155h-150zM725 265h-180l90 175zM1105 435v-155l-150 155h150zM940 265v155l150 -155h-150z
M1120 435h180l-90 -175z" />
    <glyph glyph-name=".ttfautohint" horiz-adv-x="1330" 
 />
    </font>
</defs>
</svg>
